<?xml version="1.0" encoding="UTF-8" standalone="no"?>
<svg width="16px" height="14px" viewBox="0 0 16 14" version="1.1" xmlns="http://www.w3.org/2000/svg" xmlns:xlink="http://www.w3.org/1999/xlink" xmlns:sketch="http://www.bohemiancoding.com/sketch/ns">
    <!-- Generator: Sketch 3.0.4 (8053) - http://www.bohemiancoding.com/sketch -->
    <title>Fill 1</title>
    <desc>Created with Sketch.</desc>
    <defs></defs>
    <g id="Page-1" stroke="none" stroke-width="1" fill="none" fill-rule="evenodd" sketch:type="MSPage">
        <path d="M5.0319324,14 C3.17817038,14 1.45269395,13.4149286 0,12.412147 C0.256805296,12.4447875 0.518116976,12.4614858 0.783057171,12.4614858 C2.32096273,12.4614858 3.7363766,11.8964524 4.85981199,10.9485548 C3.42338783,10.9200101 2.21111233,9.89819874 1.79342331,8.49402731 C1.99381104,8.53530052 2.19946596,8.55741793 2.41097333,8.55741793 C2.71038443,8.55741793 3.00037309,8.51425434 3.27584769,8.43347226 C1.77411025,8.10883166 0.64265701,6.68033739 0.64265701,4.96790861 C0.64265701,4.95303765 0.64265701,4.93822971 0.642891108,4.92348477 C1.08551154,5.18820045 1.591631,5.34718109 2.12976334,5.36551774 C1.24897034,4.73173762 0.669402685,3.64993834 0.669402685,2.42377733 C0.669402685,1.77607144 0.83128132,1.16894562 1.11383738,0.646949743 C2.73285782,2.78521726 5.15161491,4.19228727 7.87979078,4.3396736 C7.8238414,4.08100712 7.79475475,3.81125044 7.79475475,3.53424732 C7.79475475,1.5824339 9.26453784,0 11.0774498,0 C12.0215663,0 12.8746772,0.429241419 13.4734994,1.11614111 C14.2212078,0.957601563 14.9237353,0.663459028 15.5579648,0.258477437 C15.3128644,1.08375267 14.7924065,1.7763865 14.1146348,2.21381955 C14.7786532,2.12837455 15.4113025,1.93839174 16,1.6572928 C15.5598961,2.36605785 15.0033286,2.98855872 14.3620176,3.48686189 C14.3683383,3.63840704 14.3714986,3.79083438 14.3714986,3.94408087 C14.3714986,8.61450729 11.0697831,14 5.0319324,14" id="Fill-1" fill="#FFFFFF" sketch:type="MSShapeGroup"></path>
    </g>
</svg>