<?xml version="1.0" encoding="UTF-8" standalone="no"?>
<svg width="24px" height="23px" viewBox="0 0 24 23" version="1.1" xmlns="http://www.w3.org/2000/svg" xmlns:xlink="http://www.w3.org/1999/xlink" xmlns:sketch="http://www.bohemiancoding.com/sketch/ns">
    <!-- Generator: Sketch 3.0.4 (8053) - http://www.bohemiancoding.com/sketch -->
    <title>Slice 2</title>
    <desc>Created with Sketch.</desc>
    <defs></defs>
    <g id="Page-1" stroke="none" stroke-width="1" fill="none" fill-rule="evenodd" sketch:type="MSPage">
        <g id="butterfly" sketch:type="MSLayerGroup" fill="#FFE610">
            <path d="M18.6891284,0.939178027 C14.8817303,4.22729026 13.532334,9.32354895 13.532334,9.32354895 C13.532334,9.32354895 13.5700465,9.53263872 13.4950484,9.56201734 C13.4201926,9.59254244 13.3535909,9.47947059 13.2871315,9.36639874 C13.2206721,9.25289695 13.0655527,9.2451582 13.1347161,9.14713393 C13.2045909,9.04896635 13.1439663,8.56558061 12.8577782,8.61058005 C12.5704515,8.65543618 12.7911764,8.55010309 12.69227,8.4669831 C12.6921277,8.46612324 12.6907046,8.46669648 12.6902777,8.46612324 C12.8246196,7.96826315 13.3910188,7.05996227 13.4931984,6.89314904 C13.6127399,6.69939348 14.434588,5.24092424 14.434588,5.24092424 C14.434588,5.24092424 14.5147093,5.04688205 14.3665632,4.9894146 C14.2585489,4.94670813 14.1832662,5.13286825 14.1832662,5.13286825 C14.1832662,5.13286825 13.9070398,5.92465783 13.3918727,6.75213168 C13.280016,6.93198614 12.6514267,7.9856037 12.593079,8.44190379 C12.4913264,8.45566158 12.3835967,8.56859012 12.4632911,8.76850804 C12.3835967,8.56859012 12.2279081,8.56156792 12.1450829,8.62118502 C11.7925776,8.33155484 10.6169435,8.00179776 10.4100228,7.94948949 C9.47119471,7.70844152 8.73131795,7.32336666 8.73131795,7.32336666 C8.73131795,7.32336666 8.54802092,7.24081991 8.4989235,7.34572307 C8.4313256,7.49103974 8.62017278,7.57630939 8.62017278,7.57630939 C8.62017278,7.57630939 10.2156254,8.06485431 10.4346426,8.12189182 C10.6232052,8.17205044 11.6529702,8.43961083 12.0914315,8.70645466 C12.09257,8.70688459 12.0910045,8.70774446 12.0910045,8.70774446 C12.0769157,8.83643713 12.3071755,8.76119921 12.0699425,8.92729588 C11.8312863,9.09296263 12.1177591,9.48620617 12.2343121,9.50913583 C12.3532844,9.53177886 12.2452701,9.64427747 12.2751554,9.77282684 C12.3031908,9.90209275 12.3327915,10.0297823 12.2579358,10.0613105 C12.18308,10.0904025 12.0666693,9.91269772 12.0666693,9.91269772 C12.0666693,9.91269772 7.60535047,7.15010447 2.59570596,7.40362044 C1.59952644,7.45406568 -0.839121026,8.3268256 0.293962024,9.53063238 C0.896366012,10.1716595 2.91989124,12.2558216 3.77333247,13.2005233 C4.62762757,14.1459416 5.70691692,14.3136147 6.39541928,14.1668649 C7.08292546,14.0183954 7.54501045,13.7056923 7.54501045,13.7056923 C7.54501045,13.7056923 7.04848611,14.6717472 7.42134188,15.0744492 C7.79248991,15.4770079 7.51982134,15.7389792 7.28614609,15.9271457 C7.05417857,16.1157421 7.25682995,16.5681728 7.63409736,16.6257836 C8.01108016,16.6836809 7.98731416,16.9787569 7.90406201,17.1270831 C7.82066756,17.2742628 7.51540969,17.758795 8.08778598,17.8897807 C8.65888147,18.0216262 8.87377162,18.2030571 8.8046083,18.6878759 C8.73658347,19.1721215 9.01309444,19.212965 9.16309062,19.1718349 C9.31152137,19.1307048 9.66715745,19.3119924 9.65235707,19.8701861 C9.63613358,20.4285232 9.57935135,22.0698564 9.91008295,22.9066454 C9.97554617,23.071309 10.0770142,23.0304656 9.98863882,22.6849444 C9.89898266,22.3412862 9.99290816,20.9699496 10.3190858,20.4210711 C10.6444096,19.8713326 10.9241937,20.1585265 10.9701603,20.2734614 C11.0147037,20.3873931 11.2845261,20.4710864 11.2873723,20.2416465 C11.2914993,20.0126366 11.6767362,19.9709333 11.790016,20.0778428 C11.9032959,20.1841791 12.0809004,20.7171502 12.403378,20.5536331 C12.7611487,20.3737786 12.6125757,20.0764097 12.5145231,19.8270497 C12.4178937,19.5798394 12.6885699,18.9929836 13.0900303,18.8071101 C13.4907791,18.6233863 13.4288736,18.2416075 13.1122309,17.364405 C12.7928842,16.4886356 12.6475843,14.3970213 12.8752824,13.397575 C13.1024114,12.3974122 13.2132719,12.3051204 13.1660246,12.1087852 C13.1176387,11.9137399 13.3608488,12.006175 13.4351353,12.1917619 C13.5092796,12.3772055 13.5657772,13.1186931 13.6991229,13.3770817 C13.8289109,13.6360434 14.7698736,15.8629427 15.205204,15.6875308 C15.6392537,15.5126922 14.7986205,13.2463826 14.7184992,12.9670708 C14.6378086,12.6887621 14.1714543,12.1110782 14.0968832,11.9252047 C14.0244467,11.7397611 14.1381535,11.5028692 14.2372022,11.6785676 C14.3356816,11.854696 14.4806969,11.8435178 15.3278764,12.4108834 C16.1774753,12.9789656 17.5006863,14.5975124 17.8689881,15.4540783 C18.2380014,16.3103575 18.4547416,16.6287931 18.8718562,16.4847662 C19.2885439,16.3420291 19.8876747,16.579351 19.9867234,16.826418 C20.0839221,17.0750614 20.1806938,17.3940702 20.5636537,17.2765558 C20.9086164,17.171366 20.6735181,16.6621844 20.6823414,16.5054029 C20.6914493,16.3491946 20.9986995,16.1110128 21.1583729,16.276393 C21.3181885,16.4407699 21.4560882,16.1941328 21.4119717,16.0794846 C21.3651513,15.9648363 21.3724091,15.5618477 21.9846326,15.7351099 C22.5952907,15.9092319 23.6008627,16.8365931 23.7714941,17.1494395 C23.9441177,17.4615694 24.0451588,17.4210126 23.9801225,17.2556325 C23.6482524,16.4181269 22.4847147,15.2673449 22.0913661,14.8735281 C21.699156,14.4785649 21.8329287,14.1015154 21.9698322,14.0272806 C22.1043165,13.9536191 22.2765132,13.7326346 21.8978227,13.4281001 C21.5161436,13.1239956 21.548306,12.8449704 21.8729182,12.3532727 C22.1965342,11.8597119 21.64522,11.7214174 21.4841236,11.6712588 C21.3230271,11.6212435 21.1038676,11.4253383 21.3381121,11.1213771 C21.572072,10.8179891 21.4105486,10.3505108 21.1126909,10.3737271 C20.8146909,10.3989497 20.4369966,10.3978032 20.4305926,9.848638 C20.4268925,9.29861295 19.4052392,8.94033712 19.4052392,8.94033712 C19.4052392,8.94033712 19.9551303,8.84818858 20.5545458,8.47844793 C21.1548151,8.10899389 21.822113,7.2393868 21.7960701,5.96077203 C21.7710233,4.68301712 21.8149975,1.77023464 21.8141436,0.886296515 C21.8134321,-0.772090636 19.4455133,0.285109676 18.6891284,0.939178027" sketch:type="MSShapeGroup"></path>
        </g>
    </g>
</svg>