<svg width="144px" height="100px" viewBox="0 0 144 100" version="1.1" xmlns="http://www.w3.org/2000/svg" xmlns:xlink="http://www.w3.org/1999/xlink">
    <defs>
        <path id="path-1" d="M0,100 L143.918109,100 L143.918109,0.218807339 L0,0.218807339"></path>
    </defs>
    <g stroke="none" stroke-width="1" fill="none" fill-rule="evenodd">

        <path d="M67.0589137,14.7449541 L143.918109,14.7449541 L143.918109,71.8793578 L67.0589137,71.8793578 L67.0589137,14.7449541 Z" fill="#064B8D"></path>
        <g id="Group-5">
            <g id="Clip-3"></g>
            <path d="M1.40963578,71.8788991 L143.918109,71.8788991 M1.40963578,87.7215596 L143.918109,87.7215596" id="Stroke-2" stroke="#064B8D" stroke-width="1.5"></path>
            <path d="M119.889431,3.22477064 C107.580882,13.7495413 103.218556,30.0619266 103.218556,30.0619266 C103.218556,30.0619266 103.340473,30.7311927 103.098019,30.8252294 C102.856026,30.9229358 102.640716,30.5610092 102.425866,30.1990826 C102.211016,29.8357798 101.709546,29.8110092 101.933137,29.4972477 C102.159029,29.1830275 101.963042,27.6357798 101.037853,27.7798165 C100.108984,27.9233945 100.822543,27.5862385 100.502799,27.3201835 C100.502339,27.3174312 100.497738,27.3192661 100.496358,27.3174312 C100.930658,25.7238532 102.761712,22.8165138 103.092038,22.2825688 C103.478492,21.6623853 106.135361,16.9940367 106.135361,16.9940367 C106.135361,16.9940367 106.394377,16.3729358 105.91545,16.1889908 C105.566262,16.0522936 105.322888,16.6481651 105.322888,16.6481651 C105.322888,16.6481651 104.429904,19.1825688 102.764473,21.8311927 C102.402863,22.4068807 100.37076,25.7793578 100.182134,27.2399083 C99.8531885,27.283945 99.5049201,27.6454128 99.7625559,28.2853211 C99.5049201,27.6454128 99.0016102,27.6229358 98.733853,27.8137615 C97.5942748,26.8866972 93.7936869,25.8311927 93.124754,25.6637615 C90.0897125,24.8922018 87.6978403,23.659633 87.6978403,23.659633 C87.6978403,23.659633 87.105278,23.3954128 86.9465559,23.7311927 C86.7280256,24.1963303 87.3385304,24.4692661 87.3385304,24.4692661 C87.3385304,24.4692661 92.4963067,26.0330275 93.204345,26.2155963 C93.8139297,26.3761468 97.1429521,27.2325688 98.5604089,28.0866972 C98.5640895,28.0880734 98.5590288,28.0908257 98.5590288,28.0908257 C98.5134824,28.5027523 99.2578658,28.2619266 98.4909393,28.793578 C97.7194121,29.3238532 98.6455208,30.5825688 99.0223131,30.6559633 C99.4069265,30.7284404 99.057738,31.0885321 99.1543514,31.5 C99.244984,31.9137615 99.3406773,32.3224771 99.0986837,32.4233945 C98.8566901,32.5165138 98.4803578,31.9477064 98.4803578,31.9477064 C98.4803578,31.9477064 84.0578147,23.1050459 67.8626454,23.9165138 C64.6421981,24.0779817 56.7585431,26.8715596 60.4215719,30.7247706 C62.3690224,32.7766055 68.9106709,39.4477064 71.6696741,42.4715596 C74.4314377,45.4977064 77.9205623,46.0344037 80.1463514,45.5646789 C82.3689201,45.0894495 83.8627476,44.0885321 83.8627476,44.0885321 C83.8627476,44.0885321 82.2575847,47.1807339 83.4629521,48.4697248 C84.6627987,49.7582569 83.7813163,50.596789 83.0258914,51.1990826 C82.2759872,51.8027523 82.9311182,53.2509174 84.1507476,53.4353211 C85.3694569,53.6206422 85.2926262,54.5651376 85.0234888,55.0399083 C84.7538914,55.5110092 83.7670543,57.0619266 85.6174313,57.4811927 C87.4636677,57.903211 88.1583642,58.483945 87.9347732,60.0357798 C87.7148626,61.5857798 88.6087668,61.7165138 89.0936741,61.5848624 C89.5735208,61.453211 90.7232204,62.0334862 90.6753738,63.8201835 C90.6229265,65.6073394 90.439361,70.8610092 91.5085495,73.5394495 C91.7201789,74.0665138 92.0482045,73.9357798 91.7625048,72.8298165 C91.4726645,71.7298165 91.7763067,67.340367 92.8307732,65.5834862 C93.8824792,63.8238532 94.7869649,64.7431193 94.9355655,65.1110092 C95.0795655,65.4756881 95.9518466,65.743578 95.9610479,65.0091743 C95.9743898,64.2761468 97.2197827,64.1426606 97.5859936,64.4848624 C97.9522045,64.8252294 98.5263642,66.5311927 99.568869,66.0077982 C100.72547,65.4321101 100.245163,64.4802752 99.9281789,63.6821101 C99.6157955,62.8908257 100.490837,61.0123853 101.788677,60.4174312 C103.084217,59.8293578 102.884089,58.6073394 101.860447,55.7995413 C100.828064,52.9963303 100.358339,46.3013761 101.094441,43.1022936 C101.828703,39.9009174 102.187093,39.6055046 102.034351,38.9770642 C101.87793,38.3527523 102.664179,38.6486239 102.904332,39.2426606 C103.144026,39.8362385 103.326671,42.209633 103.757751,43.0366972 C104.177329,43.8655963 107.219272,50.993578 108.626607,50.4321101 C110.029802,49.8724771 107.312204,42.6183486 107.053188,41.7243119 C106.792332,40.8334862 105.284703,38.9844037 105.043629,38.3894495 C104.809457,37.7958716 105.177048,37.0376147 105.497252,37.6 C105.815617,38.1637615 106.284422,38.1279817 109.023182,39.9440367 C111.769764,41.7623853 116.047438,46.9431193 117.238083,49.6848624 C118.431029,52.4256881 119.131706,53.4449541 120.480153,52.983945 C121.82722,52.5270642 123.764089,53.2866972 124.084294,54.0775229 C124.398518,54.8733945 124.711361,55.8944954 125.949393,55.5183486 C127.064588,55.1816514 126.304562,53.5518349 126.333086,53.05 C126.36253,52.55 127.355808,51.7876147 127.872,52.3169725 C128.388652,52.8431193 128.834454,52.0536697 128.691834,51.6866972 C128.540473,51.3197248 128.563936,50.0298165 130.543131,50.5844037 C132.517265,51.1417431 135.768077,54.1100917 136.319693,55.1114679 C136.877751,56.1105505 137.204396,55.9807339 136.994147,55.4513761 C135.921278,52.7706422 132.159796,49.087156 130.888179,47.8266055 C129.620243,46.5623853 130.052703,45.3555046 130.495284,45.1178899 C130.930045,44.8821101 131.486722,44.1747706 130.262492,43.2 C129.028601,42.2266055 129.132575,41.3334862 130.181981,39.759633 C131.228166,38.1798165 129.445879,37.737156 128.925086,37.5766055 C128.404294,37.4165138 127.695796,36.7894495 128.453061,35.8165138 C129.209406,34.8454128 128.687233,33.3490826 127.724319,33.4233945 C126.760946,33.5041284 125.539936,33.5004587 125.519233,31.7426606 C125.507272,29.9821101 122.204473,28.8353211 122.204473,28.8353211 C122.204473,28.8353211 123.98216,28.540367 125.919949,27.3568807 C127.860498,26.1743119 130.017738,23.3908257 129.933546,19.2981651 C129.852575,15.2082569 129.994735,5.88486239 129.991974,3.05550459 C129.989674,-2.25275229 122.334671,1.13119266 119.889431,3.22477064" id="Fill-4" fill="#FFF000"></path>
        </g>
        <path d="M138.760332,78.2362385 C138.533061,78.2362385 137.731629,78.2238532 137.289508,78.3431193 C136.990006,78.5697248 136.738812,78.9513761 136.58331,79.2614679 C136.559387,79.3091743 136.523962,79.3454128 136.475655,79.3211009 L136.260345,79.2376147 C136.200537,79.2137615 136.200537,79.166055 136.212498,79.1183486 C136.29623,78.8559633 136.58331,77.8899083 136.631157,77.6752294 C136.65508,77.5917431 136.690965,77.5559633 136.738812,77.5559633 C136.774696,77.5559633 136.79862,77.5683486 136.834505,77.5917431 L136.930198,77.6637615 C137.0857,77.7706422 137.169431,77.7825688 137.396703,77.7944954 C137.815361,77.8183486 138.269904,77.8422018 138.963681,77.8422018 L139.442147,77.8422018 C139.920613,77.8422018 140.638313,77.8183486 141.128741,77.7944954 C141.320128,77.7825688 141.428243,77.7706422 141.559821,77.687156 L141.702901,77.5917431 C141.738786,77.5683486 141.775131,77.5559633 141.798594,77.5559633 C141.846901,77.5559633 141.870824,77.5917431 141.906709,77.8183486 C141.930173,77.9853211 142.133981,78.8440367 142.193789,79.166055 C142.205291,79.2137615 142.181367,79.2376147 142.133981,79.2614679 L141.930173,79.3211009 C141.858403,79.3454128 141.822518,79.3330275 141.798594,79.2733945 C141.655514,78.9752294 141.451706,78.5821101 141.200971,78.3550459 C140.90147,78.2477064 139.89715,78.2362385 139.68138,78.2362385 L139.68138,80.2399083 C139.68138,81.4917431 139.68138,82.3862385 139.693342,82.4816514 C139.717265,82.6729358 139.777534,82.7917431 139.96892,82.7917431 L140.423003,82.7917431 C140.482812,82.7917431 140.507195,82.8275229 140.507195,82.8995413 L140.507195,83.15 C140.507195,83.1857798 140.482812,83.2215596 140.423003,83.2215596 C140.339272,83.2215596 139.597649,83.1857798 139.203374,83.1857798 C138.867987,83.1857798 138.090479,83.2215596 137.994786,83.2215596 C137.923476,83.2215596 137.899093,83.1857798 137.899093,83.1137615 L137.899093,82.8756881 C137.899093,82.816055 137.923476,82.7917431 137.970863,82.7917431 L138.449329,82.7917431 C138.629214,82.7917431 138.712486,82.6963303 138.724447,82.6009174 C138.760332,82.1481651 138.760332,81.5155963 138.760332,80.8 L138.760332,78.2362385 L138.760332,78.2362385 Z M130.985252,83.0422018 C130.985252,83.15 130.949367,83.2688073 130.806288,83.2688073 C130.698173,83.2688073 130.579016,83.1857798 130.530709,83.15 C130.447438,83.0665138 130.040741,82.5775229 129.549853,81.9926606 C128.999617,81.3366972 128.485725,80.7284404 128.354147,80.5733945 C128.067067,80.2399083 127.097712,78.9513761 126.906326,78.7366972 L126.882403,78.7366972 L126.882403,80.3706422 C126.882403,81.0866972 126.930249,82.2788991 126.954633,82.3862385 C126.990058,82.6605505 127.121636,82.7917431 127.241712,82.7917431 L127.492907,82.7917431 C127.552716,82.7917431 127.552716,82.816055 127.552716,82.8637615 L127.552716,83.15 C127.552716,83.1977064 127.552716,83.2215596 127.492907,83.2215596 C127.408716,83.2215596 126.930249,83.1857798 126.583361,83.1857798 C126.415898,83.1857798 125.877623,83.2215596 125.78193,83.2215596 C125.758006,83.2215596 125.746045,83.1977064 125.746045,83.1376147 L125.746045,82.8275229 C125.746045,82.8041284 125.758006,82.7917431 125.793891,82.7917431 L126.06901,82.7917431 C126.189086,82.7917431 126.380473,82.7087156 126.415898,82.4344037 C126.427859,82.2908257 126.451783,81.4444954 126.451783,80.0963303 L126.451783,78.8440367 C126.451783,78.4146789 126.153201,78.2119266 125.817815,78.2119266 L125.71062,78.2119266 C125.662313,78.2119266 125.63839,78.1880734 125.63839,78.1408257 L125.63839,77.8545872 C125.63839,77.8183486 125.662313,77.7825688 125.71062,77.7825688 C125.734083,77.7825688 125.865661,77.7944954 126.021163,77.7944954 C126.176665,77.806422 126.368051,77.8183486 126.499629,77.8183486 C126.691016,77.8183486 126.942211,77.7944954 127.085751,77.7944954 C127.253214,77.7944954 127.324984,77.8183486 127.372831,77.8899083 C127.408716,77.9376147 128.784307,79.6674312 129.035502,79.9651376 C129.251272,80.2155963 130.363706,81.6110092 130.506786,81.7665138 L130.555093,81.7665138 L130.555093,80.9788991 C130.555093,80.2995413 130.543131,79.9293578 130.519208,79.5477064 C130.519208,79.2614679 130.483323,78.5697248 130.423514,78.4270642 C130.363706,78.2834862 130.183821,78.2119266 129.980933,78.2119266 L129.777125,78.2119266 C129.717776,78.2119266 129.693853,78.1880734 129.693853,78.1284404 L129.693853,77.8422018 C129.693853,77.806422 129.717776,77.7825688 129.777125,77.7825688 C129.860856,77.7825688 130.375208,77.8183486 130.757981,77.8183486 C131.009176,77.8183486 131.427834,77.7825688 131.512026,77.7825688 C131.571834,77.7825688 131.595757,77.806422 131.595757,77.8779817 L131.595757,78.1284404 C131.595757,78.1761468 131.571834,78.2119266 131.523527,78.2119266 L131.404371,78.2119266 C131.104869,78.2119266 131.045061,78.2958716 131.021597,78.4623853 C130.961789,79.0110092 130.985252,79.762844 130.985252,80.2513761 L130.985252,83.0422018 L130.985252,83.0422018 Z M117.767617,80.2155963 C117.839387,80.2155963 118.545125,80.1798165 118.640818,80.1559633 C118.951821,80.0729358 119.071898,79.9055046 119.071898,79.5362385 C119.071898,79.4880734 119.083399,79.4766055 119.131706,79.4766055 L119.394403,79.4880734 C119.442709,79.4880734 119.478594,79.5119266 119.466173,79.559633 C119.442709,79.6674312 119.442709,80.2995413 119.442709,80.406422 C119.442709,80.6688073 119.478594,81.0385321 119.490096,81.1940367 C119.490096,81.2412844 119.466173,81.2536697 119.430288,81.2536697 L119.179093,81.2775229 C119.143208,81.2775229 119.119284,81.2775229 119.107323,81.2293578 C119.047514,80.9316514 118.976204,80.7408257 118.664741,80.6688073 C118.306351,80.5857798 117.887693,80.5857798 117.767617,80.5857798 L117.767617,80.9908257 C117.767617,81.4087156 117.792,82.1 117.792,82.2550459 C117.792,82.816055 118.138888,82.8513761 118.65324,82.8513761 C119.179093,82.8513761 119.514479,82.8399083 119.921176,82.5178899 C120.016869,82.4458716 120.435527,81.9091743 120.555144,81.7183486 C120.614492,81.6353211 120.6743,81.6229358 120.710185,81.646789 L120.901572,81.7545872 C120.925495,81.7665138 120.949879,81.8018349 120.937917,81.8376147 L120.507297,83.1022936 C120.482914,83.1619266 120.423105,83.2215596 120.375719,83.2215596 C120.339834,83.2215596 120.159949,83.2091743 119.669981,83.1977064 C119.191514,83.1977064 118.402045,83.1857798 117.14561,83.1857798 C117.037955,83.1857798 116.822645,83.1977064 116.607335,83.1977064 C116.403987,83.2091743 116.201099,83.2215596 116.128869,83.2215596 C116.069521,83.2215596 116.057099,83.1857798 116.057099,83.1376147 L116.057099,82.8637615 C116.057099,82.816055 116.081022,82.7917431 116.140831,82.7917431 L116.248486,82.7917431 C116.810684,82.7917431 116.846569,82.7444954 116.846569,82.5775229 L116.846569,80.0366972 C116.846569,79.4045872 116.835067,78.6293578 116.822645,78.5100917 C116.78676,78.259633 116.71499,78.2119266 116.236524,78.2119266 L116.116907,78.2119266 C116.081022,78.2119266 116.069521,78.1880734 116.069521,78.1284404 L116.069521,77.8422018 C116.069521,77.8183486 116.081022,77.7825688 116.128869,77.7825688 C116.308294,77.7825688 116.966645,77.8183486 117.14561,77.8183486 L119.825482,77.806422 C119.944639,77.806422 120.100141,77.7825688 120.148447,77.7825688 C120.172371,77.7825688 120.195834,77.806422 120.220217,77.95 C120.244141,78.0568807 120.578607,79.0825688 120.60299,79.166055 C120.614492,79.2137615 120.614492,79.2376147 120.591029,79.25 L120.399642,79.3330275 C120.375719,79.3454128 120.327412,79.3454128 120.291527,79.2857798 C120.268064,79.25 119.693444,78.5821101 119.490096,78.3912844 C119.347016,78.259633 119.155629,78.2119266 119.036013,78.2119266 L117.767617,78.1880734 L117.767617,80.2155963 L117.767617,80.2155963 Z M103.353815,77.8422018 C103.353815,77.806422 103.377738,77.7825688 103.413623,77.7825688 C103.485393,77.7825688 104.155246,77.8183486 104.490633,77.8183486 C104.813597,77.8183486 105.052371,77.7825688 105.207872,77.7825688 C105.303565,77.7825688 105.363374,77.8183486 105.411681,77.9137615 L107.13416,81.8137615 C107.229853,81.587156 107.815514,80.3949541 108.031284,79.9412844 C108.222671,79.559633 108.963834,78.0688073 108.988217,77.9376147 C108.999719,77.8545872 109.059527,77.8183486 109.179604,77.8183486 C110.435118,77.8183486 110.686313,77.7825688 110.770505,77.7825688 C110.817891,77.7825688 110.830313,77.8183486 110.830313,77.8779817 L110.830313,78.1284404 C110.830313,78.1761468 110.80639,78.2119266 110.746581,78.2119266 L110.459042,78.2119266 C110.292038,78.2119266 110.243732,78.3431193 110.23223,78.4623853 C110.23223,78.5697248 110.207847,80.3706422 110.207847,80.5376147 C110.207847,80.6926606 110.23223,82.2674312 110.23223,82.3743119 C110.23223,82.6009174 110.30354,82.7917431 110.494927,82.7917431 L110.890121,82.7917431 C110.926006,82.7917431 110.94993,82.816055 110.94993,82.8513761 L110.94993,83.1376147 C110.94993,83.1857798 110.926006,83.2215596 110.866198,83.2215596 C110.770505,83.2215596 110.100652,83.1857798 109.681994,83.1857798 C109.382492,83.1857798 108.641329,83.2215596 108.557137,83.2215596 C108.509751,83.2215596 108.485367,83.1857798 108.485367,83.1022936 L108.485367,82.8637615 C108.485367,82.816055 108.509751,82.7917431 108.557137,82.7917431 L108.939911,82.7917431 C109.179604,82.7917431 109.263335,82.6605505 109.263335,82.5536697 C109.275297,82.3743119 109.286799,80.7642202 109.286799,80.6454128 L109.286799,78.3073394 L109.263335,78.2958716 C109.203527,78.4146789 108.246594,80.4422018 108.042786,80.8362385 C107.887284,81.133945 107.06193,82.8513761 107.026045,82.9229358 C106.99016,82.9949541 106.930351,83.1022936 106.834658,83.1022936 C106.762888,83.1022936 106.727463,83.0422018 106.691578,82.9711009 C106.655693,82.9114679 105.614569,80.5137615 105.530837,80.3353211 C105.363374,79.9775229 104.777712,78.593578 104.622211,78.3073394 L104.597827,78.3073394 C104.573904,78.4270642 104.561942,80.3110092 104.561942,80.3949541 C104.561942,80.490367 104.549981,82.1 104.573904,82.243578 C104.622211,82.6729358 104.789214,82.7917431 105.148064,82.7917431 L105.327489,82.7917431 C105.375335,82.7917431 105.387757,82.8275229 105.387757,82.887156 L105.387757,83.15 C105.387757,83.1857798 105.375335,83.2215596 105.315987,83.2215596 C105.243757,83.2215596 104.682019,83.1857798 104.310748,83.1857798 C104.048051,83.1857798 103.365776,83.2215596 103.294006,83.2215596 C103.234198,83.2215596 103.222236,83.1977064 103.222236,83.1022936 L103.222236,82.8637615 C103.222236,82.816055 103.24616,82.7917431 103.282505,82.7917431 L103.437546,82.7917431 C103.784435,82.7917431 103.975821,82.6366972 104.012166,82.4582569 C104.119361,81.9215596 104.143284,79.9775229 104.143284,79.833945 C104.143284,79.7270642 104.131323,78.593578 104.131323,78.4866972 C104.131323,78.3073394 104.131323,78.2119266 103.629393,78.2119266 L103.413623,78.2119266 C103.377738,78.2119266 103.353815,78.1880734 103.353815,78.1522936 L103.353815,77.8422018 L103.353815,77.8422018 Z M95.3873482,80.2155963 C95.4595783,80.2155963 96.1648562,80.1798165 96.2605495,80.1559633 C96.5720128,80.0729358 96.6911693,79.9055046 96.6911693,79.5362385 C96.6911693,79.4880734 96.7035911,79.4766055 96.7509776,79.4766055 L97.0145942,79.4880734 C97.0619808,79.4880734 97.0978658,79.5119266 97.0863642,79.559633 C97.0619808,79.6674312 97.0619808,80.2995413 97.0619808,80.406422 C97.0619808,80.6688073 97.0978658,81.0385321 97.1102875,81.1940367 C97.1102875,81.2412844 97.0863642,81.2536697 97.0504792,81.2536697 L96.7992843,81.2775229 C96.7633994,81.2775229 96.739016,81.2775229 96.7275144,81.2293578 C96.6677061,80.9316514 96.595476,80.7408257 96.2849329,80.6688073 C95.925623,80.5857798 95.5069649,80.5857798 95.3873482,80.5857798 L95.3873482,80.9908257 C95.3873482,81.4087156 95.4112716,82.1 95.4112716,82.2550459 C95.4112716,82.816055 95.7581597,82.8513761 96.2725112,82.8513761 C96.7992843,82.8513761 97.1337508,82.8399083 97.5404473,82.5178899 C97.6361406,82.4458716 98.0547987,81.9091743 98.1744153,81.7183486 C98.2346837,81.6353211 98.294492,81.6229358 98.330377,81.646789 L98.5217636,81.7545872 C98.5456869,81.7665138 98.5691502,81.8018349 98.5571885,81.8376147 L98.1270288,83.1022936 C98.1031054,83.1619266 98.0432971,83.2215596 97.9949904,83.2215596 C97.9591054,83.2215596 97.7801406,83.2091743 97.2892524,83.1977064 C96.8107859,83.1977064 96.0213163,83.1857798 94.7653419,83.1857798 C94.658147,83.1857798 94.442377,83.1977064 94.2270671,83.1977064 C94.0241789,83.2091743 93.8203706,83.2215596 93.7486006,83.2215596 C93.6887923,83.2215596 93.6768307,83.1857798 93.6768307,83.1376147 L93.6768307,82.8637615 C93.6768307,82.816055 93.700754,82.7917431 93.7605623,82.7917431 L93.8682173,82.7917431 C94.4304153,82.7917431 94.4663003,82.7444954 94.4663003,82.5775229 L94.4663003,80.0366972 C94.4663003,79.4045872 94.4543387,78.6293578 94.442377,78.5100917 C94.4069521,78.259633 94.334722,78.2119266 93.8562556,78.2119266 L93.737099,78.2119266 C93.700754,78.2119266 93.6887923,78.1880734 93.6887923,78.1284404 L93.6887923,77.8422018 C93.6887923,77.8183486 93.700754,77.7825688 93.7486006,77.7825688 C93.9284856,77.7825688 94.5859169,77.8183486 94.7653419,77.8183486 L97.444754,77.806422 C97.5648307,77.806422 97.7203323,77.7825688 97.7677188,77.7825688 C97.7916422,77.7825688 97.8160256,77.806422 97.8399489,77.95 C97.8634121,78.0568807 98.1987987,79.0825688 98.222722,79.166055 C98.2346837,79.2137615 98.2346837,79.2376147 98.2103003,79.25 L98.0189137,79.3330275 C97.9949904,79.3454128 97.9476038,79.3454128 97.9117188,79.2857798 C97.8873355,79.25 97.3131757,78.5821101 97.1102875,78.3912844 C96.9662875,78.259633 96.774901,78.2119266 96.6552843,78.2119266 L95.3873482,78.1880734 L95.3873482,80.2155963 L95.3873482,80.2155963 Z M85.0046262,79.7866972 C85.0046262,79.2972477 84.9926645,78.5697248 84.9807029,78.4866972 C84.9572396,78.2834862 84.9208946,78.2119266 84.4902748,78.2119266 L84.3108498,78.2119266 C84.2630032,78.2119266 84.2510415,78.1761468 84.2510415,78.1284404 L84.2510415,77.8422018 C84.2510415,77.806422 84.2749649,77.7825688 84.3108498,77.7825688 C84.3945815,77.7825688 85.0046262,77.8183486 85.4472077,77.8183486 C85.8419425,77.8183486 86.5357188,77.7825688 86.6194505,77.7825688 C86.6672971,77.7825688 86.6797188,77.806422 86.6797188,77.8545872 L86.6797188,78.1408257 C86.6797188,78.1761468 86.6553355,78.2119266 86.6074888,78.2119266 L86.4280639,78.2119266 C85.9854824,78.2119266 85.9495974,78.2834862 85.9495974,78.4743119 C85.9495974,78.5697248 85.9256741,79.6192661 85.9256741,80.1559633 L85.9256741,80.8123853 C85.9256741,80.9431193 85.9256741,82.4940367 85.9495974,82.7683486 C86.0931374,82.7683486 87.4328435,82.7802752 87.732345,82.7444954 C87.9237316,82.6848624 88.509393,81.8857798 88.689278,81.587156 C88.7247029,81.5399083 88.7490863,81.5155963 88.7964728,81.5275229 L88.9878594,81.6110092 C89.0117827,81.6229358 89.0117827,81.6711009 89.0002812,81.7307339 C88.9878594,81.790367 88.6773163,83.0068807 88.6290096,83.2091743 C88.4261214,83.1977064 85.7462492,83.1857798 85.399361,83.1857798 C85.2079744,83.1857798 84.9572396,83.1977064 84.729508,83.1977064 C84.5022364,83.2091743 84.3228115,83.2215596 84.2630032,83.2215596 C84.2151565,83.2215596 84.1916933,83.1977064 84.1916933,83.1137615 L84.1916933,82.8637615 C84.1916933,82.8041284 84.2271182,82.7917431 84.2749649,82.7917431 L84.6457764,82.7917431 C84.8615463,82.7917431 84.9687412,82.6848624 84.9807029,82.5775229 C84.9807029,82.3862385 85.0046262,80.6688073 85.0046262,80.2155963 L85.0046262,79.7866972 L85.0046262,79.7866972 Z M75.9031821,78.2362385 C75.6759105,78.2362385 74.8744792,78.2238532 74.4318978,78.3431193 C74.1323962,78.5697248 73.8812013,78.9513761 73.7256997,79.2614679 C73.7022364,79.3091743 73.6663514,79.3454128 73.6180447,79.3211009 L73.4027348,79.2376147 C73.3429265,79.2137615 73.3429265,79.166055 73.3553482,79.1183486 C73.4386198,78.8559633 73.7256997,77.8899083 73.7735463,77.6752294 C73.7979297,77.5917431 73.8338147,77.5559633 73.8812013,77.5559633 C73.9170863,77.5559633 73.9410096,77.5683486 73.9768946,77.5917431 L74.0725879,77.6637615 C74.2280895,77.7706422 74.3122812,77.7825688 74.5390927,77.7944954 C74.9577508,77.8183486 75.4122939,77.8422018 76.1060703,77.8422018 L76.5845367,77.8422018 C77.0630032,77.8422018 77.7811629,77.8183486 78.2715911,77.7944954 C78.4629776,77.7825688 78.5706326,77.7706422 78.7022109,77.687156 L78.8457508,77.5917431 C78.8816358,77.5683486 78.9175208,77.5559633 78.940984,77.5559633 C78.9892907,77.5559633 79.0132141,77.5917431 79.049099,77.8183486 C79.0730224,77.9853211 79.2763706,78.8440367 79.3361789,79.166055 C79.3481406,79.2137615 79.3237572,79.2376147 79.2763706,79.2614679 L79.0730224,79.3211009 C79.0012524,79.3454128 78.9653674,79.3330275 78.940984,79.2733945 C78.7979042,78.9752294 78.5940958,78.5821101 78.343361,78.3550459 C78.0443195,78.2477064 77.0395399,78.2362385 76.82423,78.2362385 L76.82423,80.2399083 C76.82423,81.4917431 76.82423,82.3862385 76.8357316,82.4816514 C76.860115,82.6729358 76.9199233,82.7917431 77.1113099,82.7917431 L77.565853,82.7917431 C77.6256613,82.7917431 77.6495847,82.8275229 77.6495847,82.8995413 L77.6495847,83.15 C77.6495847,83.1857798 77.6256613,83.2215596 77.565853,83.2215596 C77.4821214,83.2215596 76.7404984,83.1857798 76.3457636,83.1857798 C76.010377,83.1857798 75.2333291,83.2215596 75.1376358,83.2215596 C75.0658658,83.2215596 75.0419425,83.1857798 75.0419425,83.1137615 L75.0419425,82.8756881 C75.0419425,82.816055 75.0658658,82.7917431 75.1132524,82.7917431 L75.5921789,82.7917431 C75.7716038,82.7917431 75.8548754,82.6963303 75.8672971,82.6009174 C75.9031821,82.1481651 75.9031821,81.5155963 75.9031821,80.8 L75.9031821,78.2362385 L75.9031821,78.2362385 Z M65.3525367,78.2362385 C65.1257252,78.2362385 64.3238339,78.2238532 63.8817125,78.3431193 C63.5822109,78.5697248 63.331016,78.9513761 63.1755144,79.2614679 C63.1515911,79.3091743 63.1157061,79.3454128 63.0678594,79.3211009 L62.8525495,79.2376147 C62.7927412,79.2137615 62.7927412,79.166055 62.8047029,79.1183486 C62.8884345,78.8559633 63.1755144,77.8899083 63.223361,77.6752294 C63.2472843,77.5917431 63.2831693,77.5559633 63.331016,77.5559633 C63.366901,77.5559633 63.3908243,77.5683486 63.4267093,77.5917431 L63.5224026,77.6637615 C63.6779042,77.7706422 63.7616358,77.7825688 63.9889073,77.7944954 C64.4080256,77.8183486 64.8621086,77.8422018 65.556345,77.8422018 L66.0348115,77.8422018 C66.513278,77.8422018 67.2309776,77.8183486 67.7214058,77.7944954 C67.9127923,77.7825688 68.0204473,77.7706422 68.1520256,77.687156 L68.2955655,77.5917431 C68.3314505,77.5683486 68.3673355,77.5559633 68.3912588,77.5559633 C68.4391054,77.5559633 68.4630288,77.5917431 68.4989137,77.8183486 C68.5228371,77.9853211 68.7261853,78.8440367 68.7859936,79.166055 C68.7979553,79.2137615 68.7740319,79.2376147 68.7261853,79.2614679 L68.5228371,79.3211009 C68.4510671,79.3454128 68.4151821,79.3330275 68.3912588,79.2733945 C68.2477188,78.9752294 68.0443706,78.5821101 67.7927157,78.3550459 C67.4941342,78.2477064 66.4888946,78.2362385 66.2740447,78.2362385 L66.2740447,80.2399083 C66.2740447,81.4917431 66.2740447,82.3862385 66.2860064,82.4816514 C66.3094696,82.6729358 66.369738,82.7917431 66.5611246,82.7917431 L67.0156677,82.7917431 C67.075016,82.7917431 67.0993994,82.8275229 67.0993994,82.8995413 L67.0993994,83.15 C67.0993994,83.1857798 67.075016,83.2215596 67.0156677,83.2215596 C66.931476,83.2215596 66.1903131,83.1857798 65.7955783,83.1857798 C65.4606518,83.1857798 64.6826837,83.2215596 64.5869904,83.2215596 C64.5152204,83.2215596 64.4912971,83.1857798 64.4912971,83.1137615 L64.4912971,82.8756881 C64.4912971,82.816055 64.5152204,82.7917431 64.5630671,82.7917431 L65.0415335,82.7917431 C65.2214185,82.7917431 65.3046901,82.6963303 65.3171118,82.6009174 C65.3525367,82.1481651 65.3525367,81.5155963 65.3525367,80.8 L65.3525367,78.2362385 L65.3525367,78.2362385 Z M55.029623,80.2155963 C55.101853,80.2155963 55.8075911,80.1798165 55.9032843,80.1559633 C56.2142875,80.0729358 56.3339042,79.9055046 56.3339042,79.5362385 C56.3339042,79.4880734 56.3458658,79.4766055 56.3937125,79.4766055 L56.6564089,79.4880734 C56.7042556,79.4880734 56.7406006,79.5119266 56.728639,79.559633 C56.7042556,79.6674312 56.7042556,80.2995413 56.7042556,80.406422 C56.7042556,80.6688073 56.7406006,81.0385321 56.7521022,81.1940367 C56.7521022,81.2412844 56.728639,81.2536697 56.692754,81.2536697 L56.4415591,81.2775229 C56.4056741,81.2775229 56.3817508,81.2775229 56.3693291,81.2293578 C56.3099808,80.9316514 56.2382109,80.7408257 55.9267476,80.6688073 C55.5683578,80.5857798 55.1496997,80.5857798 55.029623,80.5857798 L55.029623,80.9908257 C55.029623,81.4087156 55.0540064,82.1 55.0540064,82.2550459 C55.0540064,82.816055 55.4004345,82.8513761 55.915246,82.8513761 C56.4415591,82.8513761 56.7764856,82.8399083 57.182722,82.5178899 C57.2784153,82.4458716 57.6975335,81.9091743 57.8171502,81.7183486 C57.8769585,81.6353211 57.9367668,81.6229358 57.9726518,81.646789 L58.1640383,81.7545872 C58.1879617,81.7665138 58.211885,81.8018349 58.1999233,81.8376147 L57.7693035,83.1022936 C57.7453802,83.1619266 57.6855719,83.2215596 57.6377252,83.2215596 C57.6018403,83.2215596 57.4219553,83.2091743 56.9319872,83.1977064 C56.4535208,83.1977064 55.6640511,83.1857798 54.4076166,83.1857798 C54.2999617,83.1857798 54.0851118,83.1977064 53.8693419,83.1977064 C53.6659936,83.2091743 53.4631054,83.2215596 53.3908754,83.2215596 C53.3310671,83.2215596 53.3195655,83.1857798 53.3195655,83.1376147 L53.3195655,82.8637615 C53.3195655,82.816055 53.3430288,82.7917431 53.4028371,82.7917431 L53.5109521,82.7917431 C54.0726901,82.7917431 54.1085751,82.7444954 54.1085751,82.5775229 L54.1085751,80.0366972 C54.1085751,79.4045872 54.0966134,78.6293578 54.0851118,78.5100917 C54.0487668,78.259633 53.9769968,78.2119266 53.4985304,78.2119266 L53.3789137,78.2119266 C53.3430288,78.2119266 53.3310671,78.1880734 53.3310671,78.1284404 L53.3310671,77.8422018 C53.3310671,77.8183486 53.3430288,77.7825688 53.3908754,77.7825688 C53.5703003,77.7825688 54.2286518,77.8183486 54.4076166,77.8183486 L57.0870288,77.806422 C57.2071054,77.806422 57.362607,77.7825688 57.4104537,77.7825688 C57.434377,77.7825688 57.4583003,77.806422 57.4822236,77.95 C57.506147,78.0568807 57.8410735,79.0825688 57.8649968,79.166055 C57.8769585,79.2137615 57.8769585,79.2376147 57.8530351,79.25 L57.6611885,79.3330275 C57.6377252,79.3454128 57.5898786,79.3454128 57.5539936,79.2857798 C57.5300703,79.25 56.9559105,78.5821101 56.7521022,78.3912844 C56.6085623,78.259633 56.4171757,78.2119266 56.2980192,78.2119266 L55.029623,78.1880734 L55.029623,80.2155963 L55.029623,80.2155963 Z M45.1975974,82.9114679 C45.1138658,82.8513761 45.0416358,82.8399083 45.0181725,82.9353211 L44.9818275,83.0307339 C44.9579042,83.090367 44.8980958,83.1137615 44.8024026,83.090367 C44.7310927,83.0665138 44.6947476,83.0183486 44.7067093,82.9591743 C44.7425942,82.6252294 44.8267859,81.6711009 44.8382875,81.4802752 C44.8502492,81.4321101 44.8746326,81.3963303 44.9224792,81.3963303 L45.1373291,81.4201835 C45.1851757,81.4321101 45.2330224,81.4559633 45.2330224,81.5041284 C45.2330224,81.6711009 45.2330224,81.9215596 45.4487923,82.3146789 C45.6277572,82.6729358 46.0229521,82.9114679 46.4655335,82.9114679 C46.8483067,82.9114679 47.4224665,82.6133028 47.4224665,82.1 C47.4224665,81.4201835 46.9555016,81.1224771 46.3219936,80.8834862 C46.0827604,80.8 45.5086006,80.5857798 45.1492907,80.2637615 C44.8746326,80.0009174 44.7310927,79.6192661 44.7310927,79.0348624 C44.7310927,78.6293578 44.9818275,78.259633 45.244984,78.0330275 C45.5559872,77.7825688 45.9392204,77.6752294 46.3698403,77.6752294 C46.8243834,77.6752294 47.0755783,77.7591743 47.2191182,77.8302752 C47.3387348,77.9018349 47.3985431,77.9137615 47.4224665,77.8545872 L47.4703131,77.7706422 C47.4942364,77.7348624 47.5301214,77.7348624 47.6258147,77.7348624 C47.721508,77.7348624 47.7330096,77.7825688 47.7330096,77.8422018 C47.7330096,78.2362385 47.8411246,79.0110092 47.8530863,79.1779817 C47.8530863,79.2137615 47.8411246,79.2376147 47.8052396,79.25 L47.5899297,79.2972477 C47.5540447,79.3091743 47.5301214,79.2857798 47.5181597,79.25 C47.4459297,79.106422 47.3502364,78.6889908 47.0990415,78.4027523 C46.9200767,78.2004587 46.6569201,78.0807339 46.3100319,78.0807339 C45.6521406,78.0807339 45.460754,78.593578 45.460754,78.8087156 C45.460754,78.987156 45.5201022,79.2376147 45.6521406,79.3926606 C45.8315655,79.6192661 46.2621853,79.7981651 46.4889968,79.8821101 C47.0396933,80.0844037 47.4822748,80.2155963 47.7813163,80.5261468 C48.0200895,80.7766055 48.1640895,81.0743119 48.1640895,81.6711009 C48.1640895,82.5651376 47.5899297,83.3284404 46.5014185,83.3284404 C45.8913738,83.3284404 45.4722556,83.1261468 45.1975974,82.9114679 L45.1975974,82.9114679 Z M29.6115527,82.9114679 C29.5278211,82.8513761 29.4555911,82.8399083 29.4321278,82.9353211 L29.3962428,83.0307339 C29.3723195,83.090367 29.3120511,83.1137615 29.2163578,83.090367 C29.1450479,83.0665138 29.1087029,83.0183486 29.1206645,82.9591743 C29.1570096,82.6252294 29.2407412,81.6711009 29.2527029,81.4802752 C29.2642045,81.4321101 29.2885879,81.3963303 29.3364345,81.3963303 L29.5512843,81.4201835 C29.599131,81.4321101 29.6469776,81.4559633 29.6469776,81.5041284 C29.6469776,81.6711009 29.6469776,81.9215596 29.8627476,82.3146789 C30.0421725,82.6729358 30.4369073,82.9114679 30.8794888,82.9114679 C31.262262,82.9114679 31.8364217,82.6133028 31.8364217,82.1 C31.8364217,81.4201835 31.3699169,81.1224771 30.7359489,80.8834862 C30.4967157,80.8 29.9225559,80.5857798 29.5637061,80.2637615 C29.2885879,80.0009174 29.1450479,79.6192661 29.1450479,79.0348624 C29.1450479,78.6293578 29.3962428,78.259633 29.6593994,78.0330275 C29.9704026,77.7825688 30.3531757,77.6752294 30.7837955,77.6752294 C31.2383387,77.6752294 31.4895335,77.7591743 31.6330735,77.8302752 C31.7526901,77.9018349 31.8124984,77.9137615 31.8364217,77.8545872 L31.8842684,77.7706422 C31.9081917,77.7348624 31.9440767,77.7348624 32.03977,77.7348624 C32.1354633,77.7348624 32.1474249,77.7825688 32.1474249,77.8422018 C32.1474249,78.2362385 32.2550799,79.0110092 32.2670415,79.1779817 C32.2670415,79.2137615 32.2550799,79.2376147 32.2191949,79.25 L32.003885,79.2972477 C31.968,79.3091743 31.9440767,79.2857798 31.932115,79.25 C31.860345,79.106422 31.7646518,78.6889908 31.5134569,78.4027523 C31.3340319,78.2004587 31.0708754,78.0807339 30.7239872,78.0807339 C30.0660958,78.0807339 29.8747093,78.593578 29.8747093,78.8087156 C29.8747093,78.987156 29.9340575,79.2376147 30.0660958,79.3926606 C30.2455208,79.6192661 30.6761406,79.7981651 30.9034121,79.8821101 C31.4536486,80.0844037 31.89623,80.2155963 32.1952716,80.5261468 C32.4345048,80.7766055 32.5780447,81.0743119 32.5780447,81.6711009 C32.5780447,82.5651376 32.003885,83.3284404 30.9153738,83.3284404 C30.3053291,83.3284404 29.8862109,83.1261468 29.6115527,82.9114679 L29.6115527,82.9114679 Z M23.0804856,80.7284404 C23.0804856,80.8 23.0804856,82.1720183 23.0924473,82.3504587 C23.1163706,82.6252294 23.2599105,82.7917431 23.6067987,82.7917431 L23.7862236,82.7917431 C23.8460319,82.7917431 23.8579936,82.816055 23.8579936,82.8513761 L23.8579936,83.1376147 C23.8579936,83.1857798 23.8460319,83.2215596 23.7862236,83.2215596 C23.6905304,83.2215596 23.068524,83.1857798 22.5302492,83.1857798 C22.1230927,83.1857798 21.4297764,83.2215596 21.3575463,83.2215596 C21.3096997,83.2215596 21.2862364,83.1857798 21.2862364,83.1261468 L21.2862364,82.8637615 C21.2862364,82.8275229 21.3096997,82.7917431 21.3575463,82.7917431 L21.6211629,82.7917431 C21.9202045,82.7917431 22.1115911,82.7802752 22.1355144,82.5651376 C22.147476,82.4582569 22.1594377,80.9431193 22.1594377,80.5376147 L22.1594377,80.0133028 C22.1594377,79.8224771 22.1355144,78.6293578 22.1355144,78.4623853 C22.1355144,78.3316514 22.0273994,78.2119266 21.5254696,78.2119266 L21.3096997,78.2119266 C21.2503514,78.2119266 21.2383898,78.1761468 21.2383898,78.1284404 L21.2383898,77.8545872 C21.2383898,77.806422 21.261853,77.7825688 21.3096997,77.7825688 C21.3819297,77.7825688 22.1230927,77.8302752 22.6857508,77.8183486 C23.0321789,77.8183486 23.6426837,77.7825688 23.738377,77.7825688 C23.7862236,77.7825688 23.810147,77.806422 23.810147,77.8422018 L23.810147,78.1284404 C23.810147,78.1761468 23.7981853,78.2119266 23.738377,78.2119266 L23.5350288,78.2119266 C23.2120639,78.2119266 23.1044089,78.259633 23.0924473,78.5100917 C23.0924473,78.6293578 23.0804856,80.0490826 23.0804856,80.1321101 L23.0804856,80.7284404 L23.0804856,80.7284404 Z M15.436984,80.7284404 C15.436984,80.8 15.436984,82.1720183 15.4489457,82.3504587 C15.472869,82.6252294 15.6164089,82.7917431 15.9632971,82.7917431 L16.142722,82.7917431 C16.2025304,82.7917431 16.214492,82.816055 16.214492,82.8513761 L16.214492,83.1376147 C16.214492,83.1857798 16.2025304,83.2215596 16.142722,83.2215596 C16.0470288,83.2215596 15.4250224,83.1857798 14.8862875,83.1857798 C14.4800511,83.1857798 13.7858147,83.2215596 13.7145048,83.2215596 C13.6666581,83.2215596 13.6422748,83.1857798 13.6422748,83.1261468 L13.6422748,82.8637615 C13.6422748,82.8275229 13.6666581,82.7917431 13.7145048,82.7917431 L13.9772013,82.7917431 C14.2767029,82.7917431 14.4680895,82.7802752 14.4920128,82.5651376 C14.5035144,82.4582569 14.5159361,80.9431193 14.5159361,80.5376147 L14.5159361,80.0133028 C14.5159361,79.8224771 14.4920128,78.6293578 14.4920128,78.4623853 C14.4920128,78.3316514 14.3843578,78.2119266 13.881508,78.2119266 L13.6666581,78.2119266 C13.6068498,78.2119266 13.5944281,78.1761468 13.5944281,78.1284404 L13.5944281,77.8545872 C13.5944281,77.806422 13.6188115,77.7825688 13.6666581,77.7825688 C13.7379681,77.7825688 14.4800511,77.8302752 15.0422492,77.8183486 C15.3891374,77.8183486 15.9991821,77.7825688 16.0948754,77.7825688 C16.142722,77.7825688 16.1666454,77.806422 16.1666454,77.8422018 L16.1666454,78.1284404 C16.1666454,78.1761468 16.1546837,78.2119266 16.0948754,78.2119266 L15.8915272,78.2119266 C15.5685623,78.2119266 15.4604473,78.259633 15.4489457,78.5100917 C15.4489457,78.6293578 15.436984,80.0490826 15.436984,80.1321101 L15.436984,80.7284404 L15.436984,80.7284404 Z M5.2336869,80.5137615 C5.31741853,80.5261468 5.43703514,80.5376147 5.59253674,80.5376147 C6.92028115,80.5376147 7.12362939,79.6073394 7.12362939,79.2972477 C7.12362939,78.9394495 6.94420447,78.6178899 6.72889457,78.4743119 C6.40592971,78.2715596 6.07100319,78.1642202 5.59253674,78.1642202 C5.41311182,78.1642202 5.2336869,78.2119266 5.2336869,78.4270642 L5.2336869,80.5137615 L5.2336869,80.5137615 Z M4.32414058,79.7270642 L4.32414058,78.5821101 C4.31263898,78.3431193 4.20498403,78.2119266 3.87005751,78.2119266 L3.74998083,78.2119266 C3.71455591,78.2119266 3.70213419,78.1761468 3.70213419,78.1284404 L3.70213419,77.8422018 C3.70213419,77.806422 3.72651757,77.7825688 3.77436422,77.7825688 C3.83371246,77.7825688 4.57579553,77.8183486 4.79110543,77.8183486 C4.93464537,77.8183486 5.9753099,77.7825688 6.1308115,77.7825688 C6.84851118,77.7825688 7.38678594,77.9853211 7.68582748,78.2477064 C7.94898403,78.4981651 8.10448562,78.8440367 8.10448562,79.1183486 C8.10448562,79.9412844 7.63798083,80.4183486 6.69300958,80.7522936 L6.69300958,80.7766055 C6.9681278,80.8362385 7.20690096,81.2055046 7.69778914,81.8972477 C7.8652524,82.1362385 8.14037061,82.4940367 8.36764217,82.6605505 C8.53510543,82.7802752 8.69060703,82.7917431 8.90591693,82.7917431 C8.95376358,82.7917431 8.96572524,82.8275229 8.96572524,82.8995413 L8.96572524,83.1376147 C8.96572524,83.1857798 8.94180192,83.2215596 8.89395527,83.2215596 C8.87003195,83.2215596 8.77433866,83.2091743 8.65472204,83.1977064 C8.54706709,83.1977064 8.40352716,83.1857798 8.28391054,83.1857798 C8.00879233,83.1857798 7.72171246,83.1977064 7.51836422,83.2091743 C7.29109265,83.0422018 6.76477955,82.0766055 6.6571246,81.8972477 C6.22650479,81.1582569 6.04707987,80.8954128 5.5446901,80.8954128 C5.42507348,80.8954128 5.31741853,80.8954128 5.2336869,80.9192661 L5.2336869,82.4940367 C5.25761022,82.6605505 5.32938019,82.7917431 5.56861342,82.7917431 L5.87961661,82.7917431 C5.92746326,82.7917431 5.95138658,82.816055 5.95138658,82.8513761 L5.95138658,83.1376147 C5.95138658,83.1977064 5.92746326,83.2215596 5.85569329,83.2215596 C5.7715016,83.2215596 5.12603195,83.1857798 4.73129712,83.1857798 C4.43179553,83.1857798 3.82221086,83.2215596 3.73801917,83.2215596 C3.69017252,83.2215596 3.6662492,83.1857798 3.6662492,83.1261468 L3.6662492,82.8513761 C3.6662492,82.816055 3.69017252,82.7917431 3.73801917,82.7917431 L3.88201917,82.7917431 C4.16909904,82.7917431 4.31263898,82.7444954 4.31263898,82.4816514 C4.32414058,81.8972477 4.31263898,81.1940367 4.32414058,80.466055 L4.32414058,79.7270642 L4.32414058,79.7270642 Z" id="Fill-6" fill="#064B8D"></path>
        <path d="M2.77970607,49.3912844 L6.77030032,49.3912844 L6.77030032,25.7422018 C6.77030032,24.7587156 6.5908754,24.5348624 5.96334824,24.5348624 C5.15639617,24.5348624 2.06246645,26.7701835 0.313763578,27.8431193 L0,26.9940367 C3.54203195,24.5348624 7.0394377,21.9866972 9.90885623,18.7233945 L12.8679872,18.7233945 L12.8679872,49.3912844 L16.5899042,49.3912844 L16.5899042,50.1958716 L2.77970607,50.1958716 L2.77970607,49.3912844" id="Fill-7" fill="#064B8D"></path>
        <path d="M37.7974696,40.316055 L38.649508,40.316055 L37.7528435,50.1958716 L20.9835144,50.1958716 C23.4945431,40.8077982 32.5067348,38.8408257 32.5067348,26.5917431 C32.5067348,24.2220183 31.7444089,19.7963303 28.0229521,19.7963303 C25.4672971,19.7963303 22.5978786,22.0761468 22.5978786,24.5798165 C22.5978786,25.0270642 22.867016,25.5183486 23.4945431,25.5183486 C24.0323578,25.5183486 24.660345,25.3399083 25.3775847,25.3399083 C27.1262875,25.3399083 28.1577508,26.3678899 28.1577508,28.1114679 C28.1577508,29.9444954 26.9468626,31.1513761 25.1084473,31.1513761 C22.2390288,31.1513761 21.2526518,28.4243119 21.2526518,26.546789 C21.2526518,22.2100917 24.3912077,18.7233945 29.2338403,18.7233945 C34.7932524,18.7233945 38.3357444,22.5233945 38.3357444,27.9775229 C38.3357444,36.8738532 27.798901,38.6619266 24.83977,44.6522936 L37.2145687,44.6522936 L37.7974696,40.316055" id="Fill-8" fill="#064B8D"></path>
        <path d="M44.7471949,35.1302752 C45.3300958,32.6715596 45.8237444,30.0784404 45.8237444,26.9045872 C45.8237444,24.1775229 45.5095208,21.2715596 45.4198083,19.7963303 C46.0477955,19.3940367 47.3930224,18.7233945 49.1863514,18.7233945 C53.042147,18.7233945 54.5217125,20.1986239 56.6292652,20.1986239 C57.6156422,20.1986239 57.6607284,19.3490826 57.6607284,18.7233945 L58.4672204,18.7233945 C58.4672204,21.9866972 57.7053546,25.2949541 53.6701342,25.2949541 C51.6522939,25.2949541 50.1276422,24.5348624 48.3343131,24.5348624 C47.7964984,24.5348624 47.2135974,24.5348624 46.5856102,24.6692661 C46.5856102,25.4293578 46.6302364,26.1889908 46.6302364,27.1279817 C46.6302364,28.4243119 46.4061853,31.1513761 46.1821342,32.537156 L46.2718466,32.537156 C47.527361,30.9729358 49.1412652,30.5256881 51.472869,30.5256881 C56.80823,30.5256881 60.4850607,34.7724771 60.4850607,40.2715596 C60.4850607,46.6642202 56.3601278,50.8215596 49.9035911,50.8215596 C46.3164728,50.8215596 42.9538658,48.4077982 42.9538658,44.8311927 C42.9538658,42.1490826 44.164754,40.8077982 46.0924217,40.8077982 C47.8411246,40.8077982 49.0520128,42.0146789 49.0520128,43.7587156 C49.0520128,45.5912844 47.8411246,46.8876147 45.8683706,46.8876147 C45.3751821,46.8876147 45.1060447,46.9770642 45.1060447,47.3798165 C45.1060447,48.1394495 46.8547476,50.0174312 49.7241661,50.0174312 C52.7283834,50.0174312 54.3873738,48.2733945 54.3873738,41.0761468 L54.3873738,38.706422 C54.3873738,32.3137615 51.6973802,31.5986239 49.8589649,31.5986239 C47.9754633,31.5986239 46.0477955,33.0738532 45.554607,35.2642202 L44.7471949,35.1302752" id="Fill-9" fill="#064B8D"></path>
        <path d="M54.1053546,64.737156 C53.9447923,64.6229358 53.8072332,64.6 53.7612268,64.7830275 L53.6926773,64.9655963 C53.6466709,65.0802752 53.531655,65.1261468 53.3480895,65.0802752 C53.2109904,65.0344037 53.1419808,64.9426606 53.164984,64.8284404 C53.2335335,64.1885321 53.3940958,62.3587156 53.417099,61.9931193 C53.4401022,61.9013761 53.4861086,61.8330275 53.5776613,61.8330275 L53.9903387,61.8784404 C54.0823514,61.9013761 54.1739042,61.9472477 54.1739042,62.0389908 C54.1739042,62.3587156 54.1739042,62.8389908 54.5865815,63.593578 C54.9307093,64.2798165 55.6875144,64.737156 56.5363323,64.737156 C57.2701342,64.737156 58.3710671,64.1655963 58.3710671,63.1821101 C58.3710671,61.8784404 57.4767029,61.3068807 56.2612141,60.8495413 C55.8020703,60.6894495 54.7015974,60.2779817 54.0133419,59.6605505 C53.4861086,59.1573394 53.2109904,58.4256881 53.2109904,57.3050459 C53.2109904,56.5275229 53.6926773,55.8188073 54.1969073,55.3844037 C54.7931502,54.9041284 55.5269521,54.6986239 56.3527668,54.6986239 C57.2241278,54.6986239 57.7058147,54.8582569 57.9809329,54.9958716 C58.2105048,55.1325688 58.3250607,55.1559633 58.3710671,55.0412844 L58.4626198,54.8816514 C58.5086262,54.812844 58.5776358,54.812844 58.7607412,54.812844 C58.9443067,54.812844 58.9673099,54.9041284 58.9673099,55.0183486 C58.9673099,55.7729358 59.1738786,57.259633 59.1964217,57.5798165 C59.1964217,57.6481651 59.1738786,57.6940367 59.104869,57.7169725 L58.6921917,57.8082569 C58.6231821,57.8311927 58.5776358,57.7853211 58.5546326,57.7169725 C58.4170735,57.4426606 58.233508,56.6422018 57.7518211,56.0931193 C57.4076933,55.7045872 56.9034633,55.4756881 56.2382109,55.4756881 C54.9767157,55.4756881 54.6095847,56.4591743 54.6095847,56.8706422 C54.6095847,57.2137615 54.7246006,57.6940367 54.9767157,57.9912844 C55.3208435,58.4256881 56.1466581,58.7688073 56.5823387,58.9288991 C57.6372652,59.3174312 58.485623,59.5692661 59.0593227,60.1637615 C59.5180064,60.6440367 59.7931246,61.2155963 59.7931246,62.3587156 C59.7931246,64.0743119 58.6921917,65.5376147 56.6053419,65.5376147 C55.4353994,65.5376147 54.6325879,65.1486239 54.1053546,64.737156 L54.1053546,64.737156 Z M43.3278978,60.1408257 C43.4884601,60.1637615 43.7175719,60.1862385 44.0156933,60.1862385 C46.5616869,60.1862385 46.951361,58.4027523 46.951361,57.8082569 C46.951361,57.1224771 46.6076933,56.5050459 46.1945559,56.2302752 C45.57577,55.8417431 44.9335208,55.6362385 44.0156933,55.6362385 C43.6720256,55.6362385 43.3278978,55.7275229 43.3278978,56.1389908 L43.3278978,60.1408257 L43.3278978,60.1408257 Z M41.5847157,58.6316514 L41.5847157,56.4362385 C41.5617125,55.9788991 41.3556038,55.7275229 40.7133546,55.7275229 L40.4842428,55.7275229 C40.4152332,55.7275229 40.39223,55.6587156 40.39223,55.5674312 L40.39223,55.0183486 C40.39223,54.95 40.4382364,54.9041284 40.5297891,54.9041284 C40.6448051,54.9041284 42.0664026,54.9729358 42.4795399,54.9729358 C42.7546581,54.9729358 44.7499553,54.9041284 45.0480767,54.9041284 C46.4241278,54.9041284 47.4560511,55.2931193 48.0292907,55.7958716 C48.5339808,56.2761468 48.8321022,56.9394495 48.8321022,57.4651376 C48.8321022,59.0431193 47.937738,59.9577982 46.1260064,60.5981651 L46.1260064,60.6440367 C46.6532396,60.7582569 47.1119233,61.4669725 48.0522939,62.793578 C48.3734185,63.2509174 48.9011118,63.9366972 49.3367923,64.2568807 C49.6579169,64.4853211 49.9560383,64.5082569 50.3687157,64.5082569 C50.4607284,64.5082569 50.4832716,64.5770642 50.4832716,64.7142202 L50.4832716,65.1715596 C50.4832716,65.262844 50.4377252,65.3316514 50.3457125,65.3316514 C50.3001661,65.3316514 50.1166006,65.3087156 49.8870288,65.2857798 C49.6809201,65.2857798 49.4053419,65.262844 49.17623,65.262844 C48.6485367,65.262844 48.0983003,65.2857798 47.7086262,65.3087156 C47.2724856,64.9885321 46.2635655,63.1362385 46.0569968,62.793578 C45.2311821,61.3756881 44.8875144,60.8724771 43.9241406,60.8724771 C43.6950288,60.8724771 43.4884601,60.8724771 43.3278978,60.9183486 L43.3278978,63.9366972 C43.3739042,64.2568807 43.5114633,64.5082569 43.970147,64.5082569 L44.5663898,64.5082569 C44.6579425,64.5082569 44.7039489,64.5541284 44.7039489,64.6229358 L44.7039489,65.1715596 C44.7039489,65.2857798 44.6579425,65.3316514 44.5203834,65.3316514 C44.3598211,65.3316514 43.1217891,65.262844 42.364984,65.262844 C41.7912843,65.262844 40.6218019,65.3316514 40.4612396,65.3316514 C40.3696869,65.3316514 40.3236805,65.262844 40.3236805,65.1486239 L40.3236805,64.6229358 C40.3236805,64.5541284 40.3696869,64.5082569 40.4612396,64.5082569 L40.7363578,64.5082569 C41.2865942,64.5082569 41.5617125,64.4169725 41.5617125,63.9137615 C41.5847157,62.793578 41.5617125,61.4440367 41.5847157,60.0495413 L41.5847157,58.6316514 L41.5847157,58.6316514 Z M32.9175719,60.5752294 C32.8260192,60.2550459 31.7480895,56.8252294 31.7020831,56.6422018 C31.6565367,56.5050459 31.6335335,56.4133028 31.564524,56.4133028 C31.4959744,56.4133028 31.4499681,56.4821101 31.3809585,56.6651376 C31.3124089,56.8481651 29.9133546,60.346789 29.7987987,60.5752294 L32.9175719,60.5752294 L32.9175719,60.5752294 Z M29.4546709,61.3068807 C29.3626581,61.5816514 28.6288562,63.4793578 28.5373035,63.7536697 C28.3997444,64.2110092 28.4682939,64.5082569 28.9499808,64.5082569 L29.5232204,64.5082569 C29.6607796,64.5082569 29.6842428,64.5770642 29.6842428,64.6683486 L29.6842428,65.1715596 C29.6842428,65.262844 29.6607796,65.3316514 29.5462236,65.3316514 C29.3626581,65.3316514 28.1471693,65.262844 27.7804984,65.262844 C27.3448179,65.262844 26.1978786,65.3316514 25.99177,65.3316514 C25.8997572,65.3316514 25.8997572,65.2174312 25.8997572,65.1261468 L25.8997572,64.6458716 C25.8997572,64.5541284 25.8997572,64.5082569 25.99177,64.5082569 L26.3124345,64.5082569 C26.7021086,64.5082569 27.0692396,64.2798165 27.2528051,64.0279817 C27.4133674,63.8454128 28.5828498,61.1013761 29.1335463,59.9577982 C29.2941086,59.6376147 30.6471565,56.5275229 30.7847157,56.1389908 C30.830722,56.0018349 30.9682812,55.7504587 30.8077188,55.6816514 C30.7617125,55.6362385 30.6931629,55.5215596 30.7161661,55.453211 C30.6931629,55.4073394 30.7391693,55.3385321 30.945278,55.2931193 C31.3809585,55.2243119 32.0232077,54.812844 32.2297764,54.6298165 C32.2753227,54.5385321 32.3673355,54.4697248 32.5048946,54.4697248 C32.6424537,54.4697248 32.6884601,54.5610092 32.7340064,54.7211009 C33.055131,55.6362385 34.2250735,58.9059633 34.5231949,59.8206422 C34.8673227,60.9637615 35.8532396,63.6623853 36.0138019,63.8908257 C36.3119233,64.3027523 36.7015974,64.5082569 37.0917316,64.5082569 L37.5274121,64.5082569 C37.6194249,64.5082569 37.6419681,64.5770642 37.6419681,64.6458716 L37.6419681,65.1261468 C37.6419681,65.1944954 37.6194249,65.3316514 37.4814058,65.3316514 C37.2062875,65.3316514 35.9907987,65.262844 35.4635655,65.262844 C35.0274249,65.262844 33.674377,65.3316514 33.3762556,65.3316514 C33.2156933,65.3316514 33.1926901,65.2174312 33.1926901,65.1261468 L33.1926901,64.6458716 C33.1926901,64.5770642 33.2156933,64.5082569 33.307246,64.5082569 L33.674377,64.5082569 C33.9499553,64.5082569 34.041508,64.3027523 34.041508,64.1197248 C33.9499553,63.6623853 33.3307093,61.8330275 33.1471438,61.3068807 L29.4546709,61.3068807 L29.4546709,61.3068807 Z M18.0579681,59.5692661 C18.1955272,59.5692661 19.5490351,59.5004587 19.7321406,59.4545872 C20.3288435,59.2949541 20.5579553,58.9743119 20.5579553,58.2655963 C20.5579553,58.1743119 20.5809585,58.1513761 20.6725112,58.1513761 L21.1772013,58.1743119 C21.2692141,58.1743119 21.3377636,58.2197248 21.3147604,58.3114679 C21.2692141,58.5169725 21.2692141,59.7288991 21.2692141,59.9348624 C21.2692141,60.4380734 21.3377636,61.146789 21.3607668,61.4440367 C21.3607668,61.5357798 21.3147604,61.5587156 21.2457508,61.5587156 L20.7640639,61.6041284 C20.6955144,61.6041284 20.649508,61.6041284 20.6269649,61.512844 C20.5119489,60.9412844 20.3743898,60.5752294 19.778147,60.4380734 C19.0903514,60.2779817 18.2875399,60.2779817 18.0579681,60.2779817 L18.0579681,61.0555046 C18.0579681,61.8559633 18.1039744,63.1821101 18.1039744,63.4793578 C18.1039744,64.5541284 18.7687668,64.6229358 19.7551438,64.6229358 C20.7640639,64.6229358 21.4063131,64.6 22.1861214,63.9821101 C22.3696869,63.8454128 23.1724984,62.816055 23.4016102,62.4504587 C23.5166262,62.290367 23.6311821,62.2674312 23.6997316,62.3133028 L24.0668626,62.5188073 C24.112869,62.5417431 24.1584153,62.6105505 24.1354121,62.6793578 L23.3100575,65.103211 C23.2640511,65.2174312 23.1494952,65.3316514 23.0579425,65.3316514 C22.9889329,65.3316514 22.6448051,65.3087156 21.7044345,65.2857798 C20.7875272,65.2857798 19.2734569,65.262844 16.8654824,65.262844 C16.6589137,65.262844 16.2462364,65.2857798 15.8335591,65.2857798 C15.4434249,65.3087156 15.0537508,65.3316514 14.9161917,65.3316514 C14.8011757,65.3316514 14.7786326,65.262844 14.7786326,65.1715596 L14.7786326,64.6458716 C14.7786326,64.5541284 14.8241789,64.5082569 14.9391949,64.5082569 L15.1453035,64.5082569 C16.2232332,64.5082569 16.2922428,64.4169725 16.2922428,64.096789 L16.2922428,59.2261468 C16.2922428,58.0142202 16.2692396,56.5275229 16.2462364,56.2990826 C16.1776869,55.8188073 16.0396677,55.7275229 15.1223003,55.7275229 L14.8931885,55.7275229 C14.8241789,55.7275229 14.8011757,55.6816514 14.8011757,55.5674312 L14.8011757,55.0183486 C14.8011757,54.9729358 14.8241789,54.9041284 14.9161917,54.9041284 C15.2598594,54.9041284 16.5213546,54.9729358 16.8654824,54.9729358 L22.003016,54.95 C22.2321278,54.95 22.5302492,54.9041284 22.6218019,54.9041284 C22.6678083,54.9041284 22.7138147,54.95 22.7598211,55.2243119 C22.8053674,55.4302752 23.4476166,57.396789 23.493623,57.5568807 C23.5166262,57.6481651 23.5166262,57.6940367 23.4706198,57.7169725 L23.1034888,57.8770642 C23.0579425,57.9 22.9659297,57.9 22.8973802,57.7853211 C22.8513738,57.7169725 21.7504409,56.4362385 21.3607668,56.0701835 C21.0856486,55.8188073 20.7185176,55.7275229 20.4889457,55.7275229 L18.0579681,55.6816514 L18.0579681,59.5692661 L18.0579681,59.5692661 Z M7.78520128,62.5417431 C7.80820447,63.1133028 7.78520128,63.7311927 7.83120767,64.0050459 C7.87721406,64.4853211 8.24388498,64.5082569 8.65702236,64.5082569 L8.95514377,64.5082569 C9.06969968,64.5082569 9.11570607,64.5541284 9.11570607,64.6229358 L9.11570607,65.1715596 C9.11570607,65.262844 9.06969968,65.3316514 8.93214058,65.3316514 C8.79458147,65.3316514 7.51008307,65.262844 6.75327796,65.262844 C6.24904792,65.262844 4.91854313,65.3316514 4.78098403,65.3316514 C4.66642812,65.3316514 4.62042173,65.2857798 4.62042173,65.1486239 L4.62042173,64.6458716 C4.62042173,64.5770642 4.66642812,64.5082569 4.75798083,64.5082569 L5.10210863,64.5082569 C5.83591054,64.5082569 5.97346965,64.3711009 5.99647284,64.0513761 C6.01947604,63.8454128 6.01947604,63.0220183 6.01947604,61.6729358 L6.01947604,60.8495413 C5.81290735,60.4380734 3.01479872,56.3449541 2.6481278,56.0018349 C2.41855591,55.7729358 2.00587859,55.7275229 1.8223131,55.7275229 L1.5011885,55.7275229 C1.38663259,55.7275229 1.34108626,55.6816514 1.34108626,55.5444954 L1.34108626,55.0412844 C1.34108626,54.9729358 1.38663259,54.9041284 1.52419169,54.9041284 C1.6617508,54.9041284 2.85469649,54.9729358 3.40493291,54.9729358 C3.909623,54.9729358 5.46877955,54.9041284 5.62934185,54.9041284 C5.72135463,54.9041284 5.78990415,54.95 5.78990415,55.0642202 L5.78990415,55.5674312 C5.78990415,55.6587156 5.76736102,55.7275229 5.62934185,55.7275229 L5.28567412,55.7275229 C4.87253674,55.7275229 4.84999361,55.9788991 4.94154633,56.116055 C5.07910543,56.3220183 6.98284984,59.3633028 7.34952077,59.9119266 C7.69364856,59.340367 9.59693291,56.5733945 9.68894569,56.3908257 C9.87205112,56.0247706 9.89551438,55.7275229 9.39082428,55.7275229 L9.02369329,55.7275229 C8.90913738,55.7275229 8.86313099,55.6587156 8.86313099,55.5674312 L8.86313099,55.0642202 C8.86313099,54.9729358 8.90913738,54.9041284 9.02369329,54.9041284 C9.16171246,54.9041284 10.3081917,54.9729358 10.9959872,54.9729358 C11.4091246,54.9729358 12.2119361,54.9041284 12.3494952,54.9041284 C12.4640511,54.9041284 12.5095974,54.95 12.5095974,55.087156 L12.5095974,55.5674312 C12.5095974,55.6816514 12.4640511,55.7275229 12.3724984,55.7275229 L12.1429265,55.7275229 C11.7757955,55.7275229 11.5236805,55.7958716 11.3171118,55.9105505 C10.9734441,56.0931193 8.31289457,59.8206422 7.78520128,60.6211009 L7.78520128,62.5417431 L7.78520128,62.5417431 Z" id="Fill-10" fill="#064B8D"></path>
        <path d="M6.5526901,93.6100917 C6.5526901,92.5220183 7.55194888,91.8009174 7.75897764,91.6752294 C7.81602556,91.640367 7.88503514,91.5830275 7.97704792,91.5830275 C8.05755911,91.5830275 8.09160383,91.6178899 8.09160383,91.6752294 C8.09160383,91.7325688 8.09160383,91.7550459 8.00005112,91.8238532 C7.74701597,92.0527523 7.26486901,92.556422 7.26486901,93.1178899 C7.26486901,93.2665138 7.35688179,93.4041284 7.43739297,93.4380734 C7.54044728,93.4844037 8.03409585,93.5986239 8.03409585,94.1027523 C8.03409585,94.366055 7.81602556,94.5949541 7.4484345,94.5949541 C7.10384665,94.5949541 6.5526901,94.2513761 6.5526901,93.6100917 L6.5526901,93.6100917 Z M4.6691885,93.6100917 C4.6691885,92.5220183 5.66844728,91.8009174 5.87501597,91.6752294 C5.93298403,91.640367 6.00153355,91.5830275 6.08204473,91.5830275 C6.16255591,91.5830275 6.19660064,91.6178899 6.19660064,91.6752294 C6.19660064,91.7325688 6.19660064,91.7550459 6.10504792,91.8238532 C5.86397444,92.0527523 5.38136741,92.556422 5.38136741,93.1178899 C5.38136741,93.2665138 5.47338019,93.4041284 5.55389137,93.4380734 C5.65694569,93.4844037 6.13955272,93.5986239 6.13955272,94.1027523 C6.13955272,94.366055 5.93298403,94.5949541 5.56539297,94.5949541 C5.20930351,94.5949541 4.6691885,94.2513761 4.6691885,93.6100917 L4.6691885,93.6100917 Z" id="Fill-11" fill="#064B8D"></path>
        <path d="M122.18745,97.3775229 C122.18745,95.8775229 121.165649,94.9729358 120.487974,94.9729358 C120.38446,94.9729358 119.902313,94.8582569 119.362658,95.396789 C118.914556,95.8316514 118.719029,96.5646789 118.719029,97.1486239 C118.719029,98.9692661 119.948319,99.6105505 120.499476,99.6105505 C122.072895,99.6105505 122.18745,97.9958716 122.18745,97.3775229 L122.18745,97.3775229 Z M118.765495,99.4958716 C118.340396,99.2211009 117.743233,98.4197248 117.743233,97.3431193 C117.743233,96.8738532 117.823744,96.1862385 118.374441,95.533945 C119.052575,94.7206422 119.764754,94.5720183 120.522479,94.5720183 C121.051093,94.5720183 121.670799,94.6752294 122.244958,95.1788991 C122.739067,95.6137615 123.175668,96.3238532 123.175668,97.3545872 C123.175668,97.9045872 123.060652,98.4651376 122.716064,98.9463303 C122.279923,99.5646789 121.613291,100 120.430466,100 C120.028831,100 119.350696,99.8853211 118.765495,99.4958716 L118.765495,99.4958716 Z M110.324243,97.2972477 C110.404294,97.3091743 110.51931,97.3201835 110.668371,97.3201835 C111.943668,97.3201835 112.138735,96.4270642 112.138735,96.1293578 C112.138735,95.7857798 111.966671,95.4770642 111.759642,95.3394495 C111.450019,95.1444954 111.127974,95.0412844 110.668371,95.0412844 C110.496307,95.0412844 110.324243,95.087156 110.324243,95.293578 L110.324243,97.2972477 L110.324243,97.2972477 Z M109.451502,96.5417431 L109.451502,95.4422018 C109.43954,95.2133028 109.336486,95.087156 109.014901,95.087156 L108.900345,95.087156 C108.86538,95.087156 108.854339,95.053211 108.854339,95.0068807 L108.854339,94.7325688 C108.854339,94.6977064 108.877342,94.6752294 108.922888,94.6752294 C108.980396,94.6752294 109.692575,94.709633 109.899144,94.709633 C110.036703,94.709633 111.035962,94.6752294 111.185482,94.6752294 C111.874198,94.6752294 112.39131,94.8697248 112.67839,95.1215596 C112.930965,95.3623853 113.080486,95.6940367 113.080486,95.9573394 C113.080486,96.7477064 112.632843,97.2055046 111.725137,97.5261468 L111.725137,97.5490826 C111.989214,97.606422 112.218786,97.9619266 112.689891,98.6256881 C112.850454,98.8545872 113.11499,99.1981651 113.333061,99.3587156 C113.494083,99.4733945 113.643144,99.4844037 113.849712,99.4844037 C113.896179,99.4844037 113.90722,99.5188073 113.90722,99.5876147 L113.90722,99.8169725 C113.90722,99.8623853 113.884677,99.896789 113.838671,99.896789 C113.815668,99.896789 113.723655,99.8853211 113.608639,99.8743119 C113.505125,99.8743119 113.367565,99.8623853 113.25255,99.8623853 C112.988473,99.8623853 112.713355,99.8743119 112.517827,99.8853211 C112.299297,99.7247706 111.794607,98.7977064 111.691093,98.6256881 C111.277495,97.9155963 111.105431,97.6637615 110.622824,97.6637615 C110.508268,97.6637615 110.404294,97.6637615 110.324243,97.6866972 L110.324243,99.1981651 C110.347246,99.3587156 110.415796,99.4844037 110.645367,99.4844037 L110.944409,99.4844037 C110.990415,99.4844037 111.012958,99.5077982 111.012958,99.5417431 L111.012958,99.8169725 C111.012958,99.8743119 110.990415,99.896789 110.921406,99.896789 C110.840895,99.896789 110.221188,99.8623853 109.841636,99.8623853 C109.554556,99.8623853 108.968895,99.896789 108.888383,99.896789 C108.842837,99.896789 108.819834,99.8623853 108.819834,99.8050459 L108.819834,99.5417431 C108.819834,99.5077982 108.842837,99.4844037 108.888383,99.4844037 L109.026403,99.4844037 C109.301981,99.4844037 109.43954,99.4385321 109.43954,99.1866972 C109.451502,98.6256881 109.43954,97.95 109.451502,97.2518349 L109.451502,96.5417431 L109.451502,96.5417431 Z M103.975361,99.1866972 C103.975361,99.2899083 104.010326,99.3587156 104.010326,99.416055 C104.010326,99.4733945 103.964319,99.5077982 103.883808,99.5417431 C103.275144,99.8394495 102.654518,100 101.919796,100 C101.322633,100 100.403885,99.759633 99.86423,99.1642202 C99.4046262,98.6600917 99.1750543,98.0417431 99.1750543,97.1486239 C99.1750543,96.45 99.4736358,95.7513761 100.025252,95.2701835 C100.564447,94.8123853 101.265125,94.5720183 102.080358,94.5720183 C102.631974,94.5720183 103.171629,94.7779817 103.3897,94.9385321 C103.481712,95.0188073 103.527719,95.0188073 103.550722,94.983945 L103.60823,94.8811927 C103.630773,94.8353211 103.665738,94.8009174 103.757291,94.8009174 C103.860805,94.8009174 103.883808,94.8472477 103.883808,94.9270642 C103.883808,94.983945 104.032869,96.0495413 104.055872,96.2555046 C104.055872,96.312844 104.044831,96.3357798 104.010326,96.346789 L103.791796,96.4155963 C103.757291,96.4270642 103.734288,96.4155963 103.700243,96.3238532 C103.619732,96.1408257 103.424204,95.7857798 103.149086,95.5110092 C102.838543,95.190367 102.517419,94.9614679 101.988805,94.9614679 C101.632716,94.9614679 101.184613,95.087156 100.759974,95.5454128 C100.415387,95.9229358 100.162351,96.5298165 100.162351,97.0458716 C100.162351,97.9270642 100.415387,98.5798165 100.863489,99.0495413 C101.184613,99.3931193 101.644217,99.5646789 101.965802,99.5646789 C102.367438,99.5646789 102.735029,99.4614679 102.919054,99.312844 C103.068575,99.1981651 103.091578,99.0495413 103.091578,98.8206422 L103.091578,98.396789 C103.091578,98.1334862 102.827042,98.053211 102.52846,98.053211 L102.252882,98.053211 C102.207335,98.053211 102.195374,98.0302752 102.195374,97.9958716 L102.195374,97.7211009 C102.195374,97.6866972 102.207335,97.6637615 102.252882,97.6637615 C102.321891,97.6637615 102.88455,97.6866972 103.504716,97.6866972 C103.929815,97.6866972 104.446466,97.6637615 104.492013,97.6637615 C104.538479,97.6637615 104.561482,97.6866972 104.561482,97.7211009 L104.561482,97.9958716 C104.561482,98.0302752 104.538479,98.0646789 104.503974,98.0646789 L104.308447,98.0646789 C104.193891,98.0646789 103.975361,98.1105505 103.975361,98.3050459 L103.975361,99.1866972 L103.975361,99.1866972 Z M88.0143642,97.3775229 C88.0143642,95.8775229 86.9921022,94.9729358 86.3144281,94.9729358 C86.2109137,94.9729358 85.7287668,94.8582569 85.1886518,95.396789 C84.7410096,95.8316514 84.5459425,96.5646789 84.5459425,97.1486239 C84.5459425,98.9692661 85.7747732,99.6105505 86.3259297,99.6105505 C87.8993482,99.6105505 88.0143642,97.9958716 88.0143642,97.3775229 L88.0143642,97.3775229 Z M84.5919489,99.4958716 C84.1668498,99.2211009 83.5696869,98.4197248 83.5696869,97.3431193 C83.5696869,96.8738532 83.6501981,96.1862385 84.2013546,95.533945 C84.8790288,94.7206422 85.5912077,94.5720183 86.3489329,94.5720183 C86.8770863,94.5720183 87.4972524,94.6752294 88.0714121,95.1788991 C88.5655208,95.6137615 89.0021214,96.3238532 89.0021214,97.3545872 C89.0021214,97.9045872 88.8871054,98.4651376 88.5425176,98.9463303 C88.1059169,99.5646789 87.4397444,100 86.2573802,100 C85.8552843,100 85.1776102,99.8853211 84.5919489,99.4958716 L84.5919489,99.4958716 Z M76.3586454,95.1105505 C76.1405751,95.1105505 75.3708882,95.0986239 74.9457891,95.2133028 C74.6587093,95.4307339 74.4176358,95.7972477 74.268115,96.0949541 C74.2451118,96.1408257 74.210607,96.1752294 74.1650607,96.1522936 L73.9580319,96.0720183 C73.900524,96.0495413 73.900524,96.003211 73.9124856,95.9573394 C73.9929968,95.7059633 74.268115,94.7779817 74.3141214,94.5720183 C74.3375847,94.4917431 74.3716294,94.4573394 74.4176358,94.4573394 C74.4521406,94.4573394 74.4746837,94.4688073 74.5096486,94.4917431 L74.6016613,94.5610092 C74.750722,94.6637615 74.8312332,94.6752294 75.0488435,94.6866972 C75.4509393,94.709633 75.888,94.7325688 76.5537125,94.7325688 L77.0133163,94.7325688 C77.4724601,94.7325688 78.1616358,94.709633 78.6327412,94.6866972 C78.8163067,94.6752294 78.9198211,94.6637615 79.0458786,94.5834862 L79.1838978,94.4917431 C79.2184026,94.4688073 79.2524473,94.4573394 79.2754505,94.4573394 C79.3219169,94.4573394 79.3444601,94.4917431 79.3794249,94.709633 C79.4019681,94.8697248 79.5970351,95.6940367 79.6545431,96.003211 C79.6665048,96.0495413 79.6430415,96.0720183 79.5970351,96.0949541 L79.4019681,96.1522936 C79.3329585,96.1752294 79.2989137,96.1637615 79.2754505,96.106422 C79.1378914,95.8201835 78.9423642,95.4422018 78.7012907,95.2247706 C78.4142109,95.1215596 77.4494569,95.1105505 77.2428882,95.1105505 L77.2428882,97.033945 C77.2428882,98.2362385 77.2428882,99.0949541 77.2539297,99.1866972 C77.277393,99.3701835 77.3344409,99.4844037 77.5184665,99.4844037 L77.9550671,99.4844037 C78.0125751,99.4844037 78.0355783,99.5188073 78.0355783,99.5876147 L78.0355783,99.8279817 C78.0355783,99.8623853 78.0125751,99.896789 77.9550671,99.896789 C77.8745559,99.896789 77.162377,99.8623853 76.7832843,99.8623853 C76.4621597,99.8623853 75.715476,99.896789 75.6234633,99.896789 C75.5544537,99.896789 75.5314505,99.8623853 75.5314505,99.7940367 L75.5314505,99.5646789 C75.5314505,99.5077982 75.5544537,99.4844037 75.6004601,99.4844037 L76.0600639,99.4844037 C76.2321278,99.4844037 76.312639,99.3931193 76.3241406,99.3013761 C76.3586454,98.866055 76.3586454,98.2591743 76.3586454,97.5720183 L76.3586454,95.1105505 L76.3586454,95.1105505 Z M61.1434121,97.0110092 C61.2124217,97.0110092 61.8900958,96.9766055 61.9821086,96.9536697 C62.2806901,96.8738532 62.395246,96.7133028 62.395246,96.3582569 C62.395246,96.312844 62.4067476,96.3009174 62.452754,96.3009174 L62.7053291,96.312844 C62.7513355,96.312844 62.7858403,96.3357798 62.7743387,96.3811927 C62.7513355,96.4844037 62.7513355,97.0912844 62.7513355,97.1944954 C62.7513355,97.4463303 62.7858403,97.8013761 62.7973419,97.95 C62.7973419,97.9958716 62.7743387,98.0073394 62.7398339,98.0073394 L62.4987604,98.0302752 C62.4642556,98.0302752 62.4412524,98.0302752 62.4297508,97.9844037 C62.3722428,97.6981651 62.3032332,97.5151376 62.0046518,97.4463303 C61.6600639,97.366055 61.2584281,97.366055 61.1434121,97.366055 L61.1434121,97.7550459 C61.1434121,98.1559633 61.1664153,98.8206422 61.1664153,98.9692661 C61.1664153,99.5077982 61.4995016,99.5417431 61.9936102,99.5417431 C62.4987604,99.5417431 62.820345,99.5307339 63.2109393,99.2211009 C63.302492,99.1522936 63.7045879,98.637156 63.8196038,98.4541284 C63.8766518,98.3738532 63.9341597,98.3623853 63.9686645,98.3848624 L64.15223,98.4880734 C64.1756933,98.4995413 64.1982364,98.5344037 64.1871949,98.5683486 L63.7735974,99.7821101 C63.7505942,99.8394495 63.6930863,99.896789 63.6470799,99.896789 C63.6125751,99.896789 63.4405112,99.8853211 62.9694058,99.8743119 C62.510262,99.8743119 61.7520767,99.8623853 60.5462492,99.8623853 C60.4427348,99.8623853 60.2361661,99.8743119 60.0291374,99.8743119 C59.8340703,99.8853211 59.6390032,99.896789 59.5699936,99.896789 C59.5124856,99.896789 59.5014441,99.8623853 59.5014441,99.8169725 L59.5014441,99.553211 C59.5014441,99.5077982 59.5239872,99.4844037 59.5814952,99.4844037 L59.6850096,99.4844037 C60.2246645,99.4844037 60.2591693,99.4385321 60.2591693,99.2784404 L60.2591693,96.8389908 C60.2591693,96.2325688 60.2476677,95.4880734 60.2361661,95.3733945 C60.2016613,95.1334862 60.1331118,95.087156 59.673508,95.087156 L59.558492,95.087156 C59.5239872,95.087156 59.5124856,95.0642202 59.5124856,95.0068807 L59.5124856,94.7325688 C59.5124856,94.709633 59.5239872,94.6752294 59.5699936,94.6752294 C59.7420575,94.6752294 60.3737252,94.709633 60.5462492,94.709633 L63.1189265,94.6977064 C63.2334824,94.6977064 63.3830032,94.6752294 63.4290096,94.6752294 C63.4520128,94.6752294 63.475016,94.6977064 63.4980192,94.8353211 C63.5205623,94.9385321 63.842607,95.9229358 63.8651502,96.003211 C63.8766518,96.0495413 63.8766518,96.0720183 63.8536486,96.0834862 L63.6700831,96.1637615 C63.6470799,96.1752294 63.6010735,96.1752294 63.5665687,96.1178899 C63.5440256,96.0834862 62.9924089,95.4422018 62.7973419,95.2591743 C62.6593227,95.1334862 62.4757572,95.087156 62.3607412,95.087156 L61.1434121,95.0642202 L61.1434121,97.0110092 L61.1434121,97.0110092 Z M51.2216741,99.3472477 C50.659016,98.8316514 50.4064409,97.9958716 50.4064409,97.262844 C50.4064409,96.5646789 50.659016,95.8775229 51.1761278,95.3165138 C51.4977125,94.9614679 52.1519233,94.5720183 53.013623,94.5720183 C53.7027987,94.5720183 54.2079489,94.7779817 54.4260192,94.9041284 C54.5295335,94.9614679 54.6100447,94.9614679 54.6215463,94.9041284 L54.6560511,94.7779817 C54.6675527,94.7440367 54.7015974,94.7206422 54.8051118,94.7206422 C54.943131,94.7325688 54.9776358,94.7440367 54.9776358,94.8472477 C54.9776358,94.9729358 55.0921917,96.0495413 55.1036933,96.3238532 C55.1151949,96.3811927 55.1036933,96.4385321 55.0691885,96.4385321 L54.7936102,96.4844037 C54.7476038,96.4958716 54.7365623,96.4614679 54.713099,96.3931193 C54.6445495,96.1293578 54.5065304,95.8201835 54.2079489,95.4995413 C53.9438722,95.2247706 53.4617252,94.9614679 53.0021214,94.9614679 C51.8883067,94.9614679 51.3366901,96.0834862 51.3481917,96.9995413 C51.3481917,97.4463303 51.4862109,98.2591743 52.0718722,98.9004587 C52.4394633,99.3013761 52.8185559,99.4275229 53.2776997,99.4275229 C54.1048946,99.4275229 54.7365623,99.0495413 55.0121406,98.5683486 C55.0576869,98.4880734 55.0921917,98.4770642 55.1266965,98.4995413 L55.3222236,98.6256881 C55.36777,98.6486239 55.3447668,98.7059633 55.310722,98.7747706 C54.943131,99.4614679 54.1159361,100 53.0706709,100 C52.1404217,100 51.6007668,99.7022936 51.2216741,99.3472477 L51.2216741,99.3472477 Z M44.4012268,97.5151376 C44.3556805,97.3545872 43.8155655,95.6366972 43.7925623,95.5454128 C43.7695591,95.4770642 43.7580575,95.4307339 43.7240128,95.4307339 C43.6890479,95.4307339 43.6665048,95.4651376 43.632,95.556422 C43.5974952,95.6486239 42.8968179,97.4004587 42.8393099,97.5151376 L44.4012268,97.5151376 L44.4012268,97.5151376 Z M42.667246,97.8816514 C42.6212396,98.0188073 42.2536486,98.9692661 42.2076422,99.1068807 C42.1386326,99.3357798 42.1735974,99.4844037 42.4142109,99.4844037 L42.7017508,99.4844037 C42.7703003,99.4844037 42.7818019,99.5188073 42.7818019,99.5646789 L42.7818019,99.8169725 C42.7818019,99.8623853 42.7703003,99.896789 42.7132524,99.896789 C42.6212396,99.896789 42.0125751,99.8623853 41.8285495,99.8623853 C41.6104792,99.8623853 41.0363195,99.896789 40.9328051,99.896789 C40.8872588,99.896789 40.8872588,99.8394495 40.8872588,99.7940367 L40.8872588,99.553211 C40.8872588,99.5077982 40.8872588,99.4844037 40.9328051,99.4844037 L41.0938275,99.4844037 C41.2888946,99.4844037 41.4729201,99.3701835 41.5644728,99.2440367 C41.644984,99.1522936 42.2306454,97.7784404 42.5062236,97.2055046 C42.5867348,97.0458716 43.2644089,95.4880734 43.3334185,95.293578 C43.3564217,95.2247706 43.4249712,95.0986239 43.3444601,95.0642202 C43.3219169,95.0412844 43.2874121,94.983945 43.2989137,94.95 C43.2874121,94.9270642 43.3104153,94.8926606 43.4134696,94.8697248 C43.632,94.8353211 43.9535847,94.6293578 44.056639,94.5376147 C44.0796422,94.4917431 44.1256486,94.4573394 44.1946581,94.4573394 C44.2632077,94.4573394 44.2866709,94.5036697 44.3096741,94.5834862 C44.4702364,95.0412844 45.0558978,96.6793578 45.2054185,97.137156 C45.3774824,97.709633 45.871131,99.0610092 45.9516422,99.1752294 C46.1011629,99.3811927 46.29623,99.4844037 46.4917572,99.4844037 L46.7098275,99.4844037 C46.7558339,99.4844037 46.7673355,99.5188073 46.7673355,99.553211 L46.7673355,99.7940367 C46.7673355,99.8279817 46.7558339,99.896789 46.6868243,99.896789 C46.5488051,99.896789 45.9401406,99.8623853 45.6760639,99.8623853 C45.4579936,99.8623853 44.7803195,99.896789 44.6307987,99.896789 C44.5507476,99.896789 44.539246,99.8394495 44.539246,99.7940367 L44.539246,99.553211 C44.539246,99.5188073 44.5507476,99.4844037 44.596754,99.4844037 L44.7803195,99.4844037 C44.9183387,99.4844037 44.963885,99.3811927 44.963885,99.2899083 C44.9183387,99.0610092 44.6077955,98.1449541 44.5162428,97.8816514 L42.667246,97.8816514 L42.667246,97.8816514 Z M33.5266965,96.5990826 C33.5266965,96.1293578 33.5151949,95.4307339 33.5036933,95.3504587 C33.4806901,95.1559633 33.4461853,95.087156 33.0325879,95.087156 L32.860524,95.087156 C32.8145176,95.087156 32.803016,95.053211 32.803016,95.0068807 L32.803016,94.7325688 C32.803016,94.6977064 32.8260192,94.6752294 32.860524,94.6752294 C32.9410351,94.6752294 33.5266965,94.709633 33.9513355,94.709633 C34.3304281,94.709633 34.9966006,94.6752294 35.0771118,94.6752294 C35.1226581,94.6752294 35.1346198,94.6977064 35.1346198,94.7440367 L35.1346198,95.0188073 C35.1346198,95.053211 35.1111565,95.087156 35.0656102,95.087156 L34.8930863,95.087156 C34.4679872,95.087156 34.4339425,95.1559633 34.4339425,95.3394495 C34.4339425,95.4307339 34.4109393,96.4385321 34.4109393,96.9536697 L34.4109393,97.5834862 C34.4109393,97.709633 34.4109393,99.1981651 34.4339425,99.4614679 C34.5715016,99.4614679 35.8578403,99.4733945 36.1449201,99.4385321 C36.3289457,99.3811927 36.8916038,98.6142202 37.0641278,98.3279817 C37.0981725,98.2821101 37.1211757,98.2591743 37.1671821,98.2706422 L37.3512077,98.3509174 C37.3737508,98.3623853 37.3737508,98.4082569 37.3622492,98.4651376 C37.3512077,98.5224771 37.0526262,99.6908257 37.0066198,99.8853211 C36.8110927,99.8743119 34.2384153,99.8623853 33.9053291,99.8623853 C33.7217636,99.8623853 33.4806901,99.8743119 33.2621597,99.8743119 C33.0440895,99.8853211 32.8720256,99.896789 32.8145176,99.896789 C32.7685112,99.896789 32.745508,99.8743119 32.745508,99.7940367 L32.745508,99.553211 C32.745508,99.4958716 32.7800128,99.4844037 32.8260192,99.4844037 L33.1821086,99.4844037 C33.3886773,99.4844037 33.4921917,99.3811927 33.5036933,99.2784404 C33.5036933,99.0949541 33.5266965,97.4463303 33.5266965,97.0110092 L33.5266965,96.5990826 L33.5266965,96.5990826 Z M25.8445495,97.262844 C25.9476038,97.3091743 26.143131,97.3321101 26.4417125,97.3321101 C26.9008562,97.3321101 27.3259553,97.0683486 27.5095208,96.7247706 C27.6130351,96.5298165 27.6360383,96.3811927 27.6360383,96.1178899 C27.6360383,95.3050459 26.7057891,95.0188073 26.3381981,95.0188073 C26.2121406,95.0188073 25.9476038,95.0188073 25.8445495,95.0642202 L25.8445495,97.262844 L25.8445495,97.262844 Z M24.9713482,96.4724771 C24.9713482,96.003211 24.9713482,95.4536697 24.9488051,95.2362385 C24.9373035,95.1215596 24.8567923,95.087156 24.4431949,95.087156 L24.2826326,95.087156 C24.2366262,95.087156 24.213623,95.0642202 24.213623,95.0188073 L24.213623,94.7325688 C24.213623,94.6977064 24.2366262,94.6752294 24.2826326,94.6752294 C24.3511821,94.6752294 25.1438722,94.709633 25.3849457,94.709633 C25.5229649,94.709633 25.9821086,94.6752294 26.2236422,94.6752294 C27.2109393,94.6752294 27.6130351,94.7669725 28.0381342,95.0412844 C28.4057252,95.2821101 28.6237955,95.6940367 28.6237955,96.106422 C28.6237955,97.0798165 27.900115,97.6756881 26.6137764,97.6756881 C26.2921917,97.6756881 25.9936102,97.6637615 25.8445495,97.6293578 L25.8445495,97.9270642 C25.8445495,98.2706422 25.8445495,99.1522936 25.8560511,99.2555046 C25.8675527,99.4041284 25.970607,99.4844037 26.200639,99.4844037 L26.5332652,99.4844037 C26.5792716,99.4844037 26.6022748,99.5188073 26.6022748,99.553211 L26.6022748,99.8279817 C26.6022748,99.8623853 26.5792716,99.896789 26.5217636,99.896789 C26.4302109,99.896789 25.7640383,99.8623853 25.3849457,99.8623853 C25.0978658,99.8623853 24.4201917,99.896789 24.3396805,99.896789 C24.2941342,99.896789 24.271131,99.8623853 24.271131,99.7940367 L24.271131,99.553211 C24.271131,99.5077982 24.3056358,99.4844037 24.3396805,99.4844037 L24.638722,99.4844037 C24.8567923,99.4844037 24.9258019,99.4504587 24.9373035,99.2555046 C24.9488051,99.1293578 24.9713482,98.1678899 24.9713482,97.3091743 L24.9713482,96.4724771 L24.9713482,96.4724771 Z M11.800639,97.5151376 C11.7550927,97.3545872 11.2149776,95.6366972 11.1919744,95.5454128 C11.1689712,95.4770642 11.1574696,95.4307339 11.1234249,95.4307339 C11.0884601,95.4307339 11.0659169,95.4651376 11.0314121,95.556422 C10.9969073,95.6486239 10.29623,97.4004587 10.238722,97.5151376 L11.800639,97.5151376 L11.800639,97.5151376 Z M10.0666581,97.8816514 C10.0206518,98.0188073 9.6530607,98.9692661 9.60705431,99.1068807 C9.53804473,99.3357798 9.57300958,99.4844037 9.813623,99.4844037 L10.1011629,99.4844037 C10.1701725,99.4844037 10.1812141,99.5188073 10.1812141,99.5646789 L10.1812141,99.8169725 C10.1812141,99.8623853 10.1701725,99.896789 10.1126645,99.896789 C10.0206518,99.896789 9.41198722,99.8623853 9.22842173,99.8623853 C9.01035144,99.8623853 8.43573163,99.896789 8.33221725,99.896789 C8.28667093,99.896789 8.28667093,99.8394495 8.28667093,99.7940367 L8.28667093,99.553211 C8.28667093,99.5077982 8.28667093,99.4844037 8.33221725,99.4844037 L8.49323962,99.4844037 C8.68830671,99.4844037 8.87233227,99.3701835 8.96388498,99.2440367 C9.04439617,99.1522936 9.63005751,97.7784404 9.90563578,97.2055046 C9.98614696,97.0458716 10.6638211,95.4880734 10.7328307,95.293578 C10.7558339,95.2247706 10.8243834,95.0986239 10.7443323,95.0642202 C10.7213291,95.0412844 10.6868243,94.983945 10.6983259,94.95 C10.6868243,94.9270642 10.7098275,94.8926606 10.8128818,94.8697248 C11.0314121,94.8353211 11.3529968,94.6293578 11.4560511,94.5376147 C11.4795144,94.4917431 11.5250607,94.4573394 11.5940703,94.4573394 C11.6630799,94.4573394 11.6860831,94.5036697 11.7090863,94.5834862 C11.8696486,95.0412844 12.4553099,96.6793578 12.6048307,97.137156 C12.7773546,97.709633 13.2710032,99.0610092 13.3515144,99.1752294 C13.5005751,99.3811927 13.6961022,99.4844037 13.8911693,99.4844037 L14.1092396,99.4844037 C14.155246,99.4844037 14.1667476,99.5188073 14.1667476,99.553211 L14.1667476,99.7940367 C14.1667476,99.8279817 14.155246,99.896789 14.0862364,99.896789 C13.9482173,99.896789 13.3400128,99.8623853 13.075476,99.8623853 C12.8574058,99.8623853 12.1797316,99.896789 12.0306709,99.896789 C11.9501597,99.896789 11.9386581,99.8394495 11.9386581,99.7940367 L11.9386581,99.553211 C11.9386581,99.5188073 11.9501597,99.4844037 11.9961661,99.4844037 L12.1797316,99.4844037 C12.3177508,99.4844037 12.3637572,99.3811927 12.3637572,99.2899083 C12.3177508,99.0610092 12.0076677,98.1449541 11.915655,97.8816514 L10.0666581,97.8816514 L10.0666581,97.8816514 Z" id="Fill-12" fill="#064B8D"></path>
        <path d="M132.855872,98.6830275 L132.901419,98.6830275 C133.004933,98.3394495 134.027195,95.5912844 134.027195,95.3165138 C134.027195,95.190367 133.923681,95.087156 133.77416,95.087156 L133.602096,95.087156 C133.556089,95.087156 133.544588,95.053211 133.544588,95.0068807 L133.544588,94.7325688 C133.544588,94.6977064 133.556089,94.6752294 133.613597,94.6752294 C133.694109,94.6752294 134.222262,94.709633 134.429291,94.709633 C134.658863,94.709633 135.072,94.6752294 135.14101,94.6752294 C135.175514,94.6752294 135.187016,94.6977064 135.187016,94.7669725 L135.187016,95.0188073 C135.187016,95.0642202 135.175514,95.087156 135.129508,95.087156 L134.991489,95.087156 C134.865431,95.087156 134.761917,95.1334862 134.716371,95.190367 C134.635859,95.2821101 132.993431,99.4041284 132.821367,99.7821101 C132.775361,99.8853211 132.706351,100 132.591796,100 C132.488281,100 132.419272,99.896789 132.384307,99.8050459 L131.052422,96.003211 L131.029419,96.003211 C130.903361,96.2784404 129.628064,99.5417431 129.502006,99.8279817 C129.456,99.9311927 129.398492,100 129.306939,100 C129.226428,100 129.157419,99.9426606 129.111412,99.8279817 L127.411936,95.3394495 C127.331425,95.1105505 127.135898,95.087156 127.032843,95.087156 L126.837776,95.087156 C126.803272,95.087156 126.79131,95.0642202 126.79131,95.0302752 L126.79131,94.7325688 C126.79131,94.6866972 126.803272,94.6752294 126.848818,94.6752294 C126.906326,94.6752294 127.492447,94.709633 127.744562,94.709633 C127.917086,94.709633 128.617764,94.6752294 128.686313,94.6752294 C128.743821,94.6752294 128.755783,94.6977064 128.755783,94.7550459 L128.755783,95.0188073 C128.755783,95.053211 128.743821,95.087156 128.686313,95.087156 L128.560256,95.087156 C128.468703,95.087156 128.388192,95.1788991 128.434198,95.3165138 L129.52501,98.6830275 L129.559514,98.6830275 C129.628064,98.4422018 130.707834,95.7399083 130.730837,95.533945 C130.742339,95.4197248 130.707834,95.3165138 130.638824,95.2133028 C130.558773,95.1215596 130.455259,95.087156 130.329201,95.087156 L130.168179,95.087156 C130.133674,95.087156 130.122173,95.0642202 130.122173,95.0188073 L130.122173,94.7325688 C130.122173,94.6977064 130.145176,94.6752294 130.17922,94.6752294 C130.236728,94.6752294 130.880358,94.709633 131.190441,94.709633 C131.420013,94.709633 132.12069,94.6752294 132.200741,94.6752294 C132.235246,94.6752294 132.258249,94.6977064 132.258249,94.7669725 L132.258249,95.0188073 C132.258249,95.0642202 132.247208,95.087156 132.200741,95.087156 L131.971169,95.087156 C131.787604,95.087156 131.764601,95.2247706 131.799105,95.3165138 L132.855872,98.6830275" id="Fill-13" fill="#064B8D"></path>
        <path d="M140.744128,92.5683486 C140.744128,93.6444954 139.744869,94.3775229 139.5383,94.5036697 C139.480792,94.5376147 139.411783,94.5949541 139.32023,94.5949541 C139.239719,94.5949541 139.205214,94.5610092 139.205214,94.5036697 C139.205214,94.4463303 139.205214,94.4233945 139.297227,94.3541284 C139.549802,94.1252294 140.020447,93.6215596 140.020447,93.0605505 C140.020447,92.9119266 139.928895,92.7743119 139.848383,92.7399083 C139.756371,92.6940367 139.262722,92.5793578 139.262722,92.0761468 C139.262722,91.8123853 139.480792,91.5830275 139.836882,91.5830275 C140.192971,91.5830275 140.744128,91.9266055 140.744128,92.5683486 L140.744128,92.5683486 Z M138.826121,92.5683486 C138.826121,93.6444954 137.827323,94.3775229 137.620294,94.5036697 C137.562786,94.5376147 137.505278,94.5949541 137.413265,94.5949541 C137.333214,94.5949541 137.298709,94.5610092 137.298709,94.5036697 C137.298709,94.4463303 137.298709,94.4233945 137.390262,94.3541284 C137.631796,94.1252294 138.114403,93.6215596 138.114403,93.0605505 C138.114403,92.9119266 138.02193,92.7743119 137.941879,92.7399083 C137.838364,92.6940367 137.356217,92.5793578 137.356217,92.0761468 C137.356217,91.8123853 137.562786,91.5830275 137.930377,91.5830275 C138.286466,91.5830275 138.826121,91.9266055 138.826121,92.5683486 L138.826121,92.5683486 Z" id="Fill-14" fill="#064B8D"></path>
    </g>
</svg>